<svg xmlns="http://www.w3.org/2000/svg" xmlns:xlink="http://www.w3.org/1999/xlink" width="502" zoomAndPan="magnify" viewBox="0 0 376.5 740.25" height="987" preserveAspectRatio="xMidYMid meet" version="1.0"><defs><clipPath id="1c61e21866"><path d="M 2 0.117188 L 362 0.117188 L 362 726.652344 L 2 726.652344 Z M 2 0.117188 " clip-rule="nonzero"/></clipPath></defs><path fill="#1a1a1a" d="M 223.632812 6.96875 C 208.398438 3.082031 189.960938 0.644531 173.191406 2.398438 C 156.433594 4.15625 141.347656 10.089844 126.648438 19.242188 C 111.941406 28.382812 97.621094 40.714844 88.089844 51.535156 C 78.574219 62.359375 73.84375 71.65625 70.113281 76.53125 C 66.386719 81.40625 63.644531 81.855469 56.550781 82.855469 C 49.46875 83.84375 38.039062 85.367188 31.785156 85.902344 C 25.546875 86.425781 24.472656 85.976562 25.546875 88.035156 C 26.621094 90.097656 29.8125 94.667969 32.175781 99.234375 C 34.542969 103.804688 36.066406 108.375 37.820312 109.898438 C 39.5625 111.421875 41.550781 109.898438 46.960938 105.472656 C 52.359375 101.0625 61.207031 93.753906 64.398438 92.230469 C 67.605469 90.691406 65.167969 94.96875 61.960938 103.269531 C 58.769531 111.566406 54.808594 123.914062 52.75 130.613281 C 50.6875 137.316406 50.53125 138.390625 53.734375 139.304688 C 56.925781 140.21875 63.484375 140.988281 68.285156 141.667969 C 73.089844 142.351562 76.136719 142.960938 78.5 142.816406 C 80.863281 142.65625 82.53125 141.742188 81.996094 134.125 C 81.472656 126.507812 78.730469 112.175781 77.355469 105.632812 C 75.976562 99.078125 75.976562 100.292969 78.574219 106.011719 C 81.15625 111.726562 86.347656 121.941406 89.308594 126.742188 C 92.28125 131.527344 93.050781 130.917969 96.402344 128.785156 C 99.753906 126.65625 105.6875 123 107.136719 120.5625 C 108.589844 118.125 105.542969 116.90625 100.59375 111.886719 C 95.632812 106.851562 88.785156 98.015625 85.347656 93.359375 C 81.921875 88.71875 81.921875 88.253906 90.003906 90.242188 C 98.070312 92.230469 114.230469 96.640625 129.464844 98.320312 C 144.699219 99.988281 159.015625 98.929688 180.808594 103.5 C 202.597656 108.070312 231.859375 118.285156 248.917969 126.582031 C 265.996094 134.878906 270.871094 141.292969 276.25 144.410156 C 281.632812 147.53125 287.523438 147.386719 293.386719 149.285156 C 299.261719 151.1875 305.09375 155.148438 307.484375 157.816406 C 309.867188 160.484375 308.804688 161.847656 303.628906 167.957031 C 298.449219 174.050781 289.148438 184.859375 284.882812 190.734375 C 280.617188 196.59375 281.371094 197.507812 285.261719 199.714844 C 289.148438 201.933594 296.15625 205.429688 300.042969 206.503906 C 303.933594 207.5625 304.6875 206.199219 306.515625 200.019531 C 308.34375 193.851562 311.242188 182.882812 312.695312 177.402344 C 314.144531 171.917969 314.144531 171.917969 313.535156 179.765625 C 312.925781 187.597656 311.707031 203.296875 310.867188 211.914062 C 310.023438 220.515625 309.5625 222.039062 314.363281 221.808594 C 319.164062 221.589844 329.21875 219.601562 334.558594 218.238281 C 339.882812 216.859375 340.503906 216.089844 337.53125 209.171875 C 334.558594 202.238281 328 189.121094 324.722656 182.578125 C 321.457031 176.023438 321.457031 176.023438 324.792969 180.59375 C 328.160156 185.164062 334.863281 194.316406 338.359375 199.640625 C 341.867188 204.980469 342.171875 206.503906 346.292969 203.992188 C 350.398438 201.46875 358.320312 194.925781 360.308594 191.039062 C 362.296875 187.148438 358.320312 185.929688 350.9375 181.128906 C 343.550781 176.328125 332.730469 167.957031 327.171875 163.15625 C 321.601562 158.351562 321.296875 157.132812 320.921875 149.125 C 320.542969 141.132812 320.078125 126.351562 315.582031 110.128906 C 311.085938 93.898438 302.554688 76.226562 293.109375 61.210938 C 283.664062 46.210938 273.304688 33.867188 262.105469 25.03125 C 250.90625 16.195312 238.867188 10.859375 223.632812 6.96875 Z M 94.5 704.320312 C 91.832031 704.550781 87.335938 705.390625 81.125 704.695312 C 74.917969 704.015625 66.996094 701.808594 61.628906 695.671875 C 56.246094 689.535156 53.429688 679.484375 52.867188 672.707031 C 52.285156 665.917969 53.96875 662.421875 55.5625 661.203125 C 57.160156 659.984375 58.699219 661.042969 61.4375 663.640625 C 64.179688 666.222656 68.140625 670.34375 73.582031 672.519531 C 79.035156 674.679688 85.972656 674.914062 89.425781 674.1875 C 92.890625 673.460938 92.890625 671.792969 92.890625 668.964844 C 92.890625 666.152344 92.890625 662.191406 92.890625 660.21875 C 92.890625 658.230469 92.890625 658.230469 89.773438 657.691406 C 86.652344 657.15625 80.402344 656.097656 75.179688 654.3125 C 69.96875 652.511719 65.777344 650.003906 63.71875 648.015625 C 61.65625 646.042969 61.742188 644.59375 60.902344 625.355469 C 60.0625 606.121094 58.304688 569.097656 56.59375 539.878906 C 54.882812 510.660156 53.199219 489.25 52.210938 477.527344 C 51.226562 465.789062 50.921875 463.730469 49.964844 462.628906 C 49.007812 461.527344 47.410156 461.367188 45.207031 461.105469 C 43 460.828125 40.171875 460.453125 39.792969 457.898438 C 39.417969 455.34375 41.476562 450.628906 44.335938 443.957031 C 47.191406 437.296875 50.847656 428.679688 52.675781 424.386719 C 54.503906 420.078125 54.503906 420.078125 45.058594 408.296875 C 35.601562 396.535156 16.710938 372.988281 8.328125 359.625 C -0.0429688 346.25 2.089844 343.042969 13.621094 330.625 C 25.171875 318.207031 46.121094 296.578125 61.019531 283.738281 C 75.902344 270.898438 84.738281 266.867188 94.53125 264.574219 C 104.324219 262.296875 115.074219 261.761719 124.167969 261.644531 C 133.28125 261.527344 140.738281 261.832031 145.65625 262.644531 C 150.574219 263.445312 152.9375 264.734375 154.113281 265.386719 C 155.289062 266.027344 155.289062 266.027344 156.203125 263.445312 C 157.117188 260.847656 158.957031 255.667969 159.859375 253.070312 C 160.773438 250.488281 160.773438 250.488281 159.480469 248.429688 C 158.191406 246.367188 155.59375 242.261719 153.996094 239.101562 C 152.402344 235.9375 151.792969 233.734375 151.488281 232.628906 C 151.183594 231.511719 151.183594 231.511719 143.988281 230.902344 C 136.777344 230.292969 122.386719 229.074219 108.820312 226.101562 C 95.257812 223.140625 82.53125 218.414062 76.699219 215.484375 C 70.882812 212.550781 71.941406 211.40625 76.859375 207.140625 C 81.777344 202.875 90.542969 195.476562 98.1875 184.625 C 105.847656 173.773438 112.402344 159.441406 116.902344 146.835938 C 121.382812 134.226562 123.835938 123.332031 126.652344 116.324219 C 129.464844 109.320312 132.671875 106.183594 141.347656 104.632812 C 150.035156 103.066406 164.210938 103.066406 186.609375 108.78125 C 209.007812 114.496094 239.632812 125.929688 255.476562 136.128906 C 271.320312 146.339844 272.394531 155.335938 271.289062 166.492188 C 270.1875 177.648438 266.910156 190.980469 265.007812 202.078125 C 263.09375 213.160156 262.554688 221.996094 264.472656 234.632812 C 266.371094 247.28125 270.710938 263.75 274.105469 273.453125 C 277.5 283.171875 279.9375 286.148438 278.632812 287.132812 C 277.339844 288.121094 272.320312 287.132812 261.003906 281.492188 C 249.6875 275.863281 232.089844 265.574219 221.152344 259.367188 C 210.226562 253.15625 205.960938 251.023438 203.597656 250.183594 C 201.234375 249.34375 200.785156 249.792969 198.230469 251.242188 C 195.675781 252.695312 191.019531 255.132812 188.699219 256.347656 C 186.378906 257.566406 186.378906 257.566406 186.609375 259.859375 C 186.828125 262.136719 187.292969 266.707031 187.523438 269 C 187.757812 271.277344 187.757812 271.277344 192.398438 272.234375 C 197.039062 273.191406 206.339844 275.09375 217.378906 279.519531 C 228.433594 283.929688 241.230469 290.863281 255.96875 302.222656 C 270.710938 313.566406 287.394531 329.335938 297.839844 340 C 308.285156 350.675781 312.460938 356.230469 315.175781 360.6875 C 317.875 365.140625 319.09375 368.492188 318.179688 375.46875 C 317.265625 382.433594 314.21875 393.023438 307.964844 407.195312 C 301.726562 421.371094 292.28125 439.125 285.464844 450.050781 C 278.628906 460.988281 274.453125 465.09375 271.972656 465.675781 C 269.492188 466.242188 268.738281 463.265625 267.171875 459.84375 C 265.617188 456.417969 263.253906 452.53125 261.875 450.355469 C 260.511719 448.195312 260.132812 447.730469 255.433594 451.125 C 250.761719 454.503906 241.765625 461.742188 237.226562 465.441406 C 232.699219 469.140625 232.628906 469.285156 233.238281 472.144531 C 233.847656 475.003906 235.136719 480.558594 235.628906 485.40625 C 236.125 490.234375 235.820312 494.355469 234.976562 496.53125 C 234.152344 498.691406 232.773438 498.925781 230.453125 498.78125 C 228.128906 498.621094 224.851562 498.082031 223.167969 498.054688 C 221.5 498.011719 221.429688 498.476562 223.167969 526.242188 C 224.925781 554.007812 228.507812 609.09375 230.101562 637.207031 C 231.714844 665.308594 231.320312 666.457031 229.390625 666.917969 C 227.449219 667.367188 223.9375 667.152344 218.570312 667.035156 C 213.203125 666.917969 205.960938 666.917969 202.261719 667.222656 C 198.5625 667.527344 198.417969 668.136719 198.304688 670.414062 C 198.1875 672.707031 198.113281 676.667969 198.839844 679.484375 C 199.566406 682.296875 201.089844 683.980469 205.164062 685.691406 C 209.242188 687.402344 215.855469 689.160156 221.382812 688.664062 C 226.910156 688.171875 231.320312 685.429688 235.136719 682.992188 C 238.953125 680.554688 242.144531 678.421875 243.945312 678.074219 C 245.726562 677.726562 246.105469 679.179688 245.769531 684.242188 C 245.421875 689.320312 244.351562 697.992188 242.027344 704.363281 C 239.707031 710.714844 236.125 714.765625 231.410156 717.839844 C 226.679688 720.929688 220.820312 723.0625 213.769531 724.238281 C 206.71875 725.425781 198.492188 725.660156 192.136719 723.035156 C 185.769531 720.394531 181.269531 714.910156 179.023438 712.167969 C 176.773438 709.425781 176.773438 709.425781 175.859375 710.921875 C 174.945312 712.398438 173.117188 715.375 170.375 716.59375 C 167.632812 717.8125 163.976562 717.273438 159.640625 714.792969 C 155.289062 712.328125 150.269531 707.902344 148.890625 704.855469 C 147.527344 701.808594 149.804688 700.125 154.113281 695.832031 C 158.421875 691.523438 164.746094 684.589844 168.242188 680.585938 C 171.753906 676.597656 172.4375 675.523438 172.785156 672.707031 C 173.117188 669.878906 173.117188 665.308594 172.886719 663.175781 C 172.667969 661.042969 172.203125 661.347656 168.78125 660.738281 C 165.355469 660.128906 158.957031 658.605469 155.289062 657.503906 C 151.632812 656.402344 150.734375 655.71875 150.835938 650.84375 C 150.949219 645.957031 152.097656 636.902344 150.296875 619.335938 C 148.511719 601.78125 143.796875 575.726562 141.578125 558.160156 C 139.375 540.605469 139.679688 531.539062 138.722656 526.386719 C 137.777344 521.253906 135.558594 520.035156 133.585938 519.308594 C 131.597656 518.582031 129.84375 518.351562 129.085938 524.90625 C 128.320312 531.464844 128.550781 544.78125 129.042969 560.945312 C 129.550781 577.089844 130.304688 596.066406 131.671875 611.792969 C 133.046875 627.53125 135.035156 640.023438 135.527344 647.191406 C 136.023438 654.339844 135.019531 656.167969 133.613281 656.9375 C 132.207031 657.691406 130.378906 657.386719 128.433594 657.242188 C 126.492188 657.082031 124.445312 657.082031 123.371094 657.621094 C 122.3125 658.15625 122.226562 659.214844 122.71875 662.566406 C 123.226562 665.917969 124.285156 671.5625 125.953125 677.117188 C 127.636719 682.6875 129.929688 688.171875 131.597656 691.640625 C 133.28125 695.105469 134.339844 696.542969 134.804688 697.847656 C 135.253906 699.140625 135.109375 700.285156 131.367188 702.722656 C 127.636719 705.160156 120.324219 708.890625 114.957031 710.90625 C 109.589844 712.921875 106.152344 713.242188 104.207031 712.660156 C 102.261719 712.09375 101.8125 710.644531 101.160156 709.195312 C 100.523438 707.742188 99.679688 706.304688 98.839844 705.394531 C 98 704.480469 97.171875 704.101562 94.5 704.320312 Z M 238.867188 327.828125 C 243.363281 333.613281 252.515625 347.25 259.015625 357.988281 C 265.546875 368.738281 269.417969 376.585938 271.21875 380.574219 C 273.003906 384.578125 272.699219 384.738281 266.53125 389.570312 C 260.351562 394.402344 248.324219 403.933594 242.796875 409.648438 C 237.269531 415.363281 238.269531 417.265625 239.488281 419.46875 C 240.707031 421.6875 242.144531 424.199219 242.796875 426.097656 C 243.449219 428 243.289062 429.304688 239.5625 432.46875 C 235.820312 435.628906 228.523438 440.648438 224.894531 442.941406 C 221.269531 445.21875 221.355469 444.769531 223.792969 437.601562 C 226.230469 430.449219 231.03125 416.582031 233.542969 407.050781 C 236.050781 397.535156 236.285156 392.355469 235.703125 388.351562 C 235.136719 384.347656 233.773438 381.53125 233.078125 379.660156 C 232.394531 377.789062 232.394531 376.890625 232.699219 369.304688 C 233.003906 361.714844 233.613281 347.484375 233.992188 339.171875 C 234.382812 330.875 234.527344 328.507812 234.527344 326.304688 C 234.527344 324.082031 234.382812 322.039062 238.867188 327.828125 Z M 58.246094 353.199219 C 59.699219 355.519531 64.6875 358.03125 67.183594 359.292969 C 69.679688 360.539062 69.679688 360.539062 72.683594 352.546875 C 75.699219 344.554688 81.71875 328.539062 84.738281 319.820312 C 87.769531 311.101562 87.8125 309.648438 87.582031 309.34375 C 87.347656 309.039062 86.855469 309.882812 82.386719 316.277344 C 77.90625 322.675781 69.449219 334.644531 64.167969 341.695312 C 58.902344 348.730469 56.8125 350.863281 58.246094 353.199219 Z M 58.246094 353.199219 " fill-opacity="1" fill-rule="evenodd"/><g clip-path="url(#1c61e21866)"><path fill="#ffffff" d="M 94.589844 705.378906 L 92.90625 705.550781 C 90.136719 705.855469 86.160156 706.304688 81.011719 705.742188 C 77.441406 705.347656 73.320312 704.464844 69.402344 702.652344 C 66.285156 701.214844 63.296875 699.183594 60.828125 696.367188 C 58.320312 693.496094 56.347656 689.8125 54.894531 686.011719 C 53.140625 681.410156 52.125 676.59375 51.804688 672.792969 C 51.546875 669.691406 51.75 667.222656 52.199219 665.324219 C 52.792969 662.769531 53.867188 661.175781 54.925781 660.363281 C 56.085938 659.476562 57.21875 659.417969 58.523438 660.042969 C 59.566406 660.535156 60.714844 661.507812 62.148438 662.871094 L 62.992188 663.667969 C 65.617188 666.195312 69.246094 669.660156 73.972656 671.546875 C 76.339844 672.476562 79.035156 673.054688 81.5625 673.316406 C 84.609375 673.636719 87.421875 673.535156 89.222656 673.15625 C 90.585938 672.882812 91.238281 672.460938 91.527344 671.894531 C 91.847656 671.273438 91.847656 670.242188 91.847656 668.964844 L 91.847656 660.21875 C 91.847656 659.113281 91.847656 659.113281 89.597656 658.738281 C 86.449219 658.199219 80.140625 657.113281 74.84375 655.300781 C 72.335938 654.441406 70.042969 653.414062 68.097656 652.339844 C 65.90625 651.136719 64.136719 649.875 62.992188 648.785156 C 60.773438 646.636719 60.699219 645.214844 60.003906 628.996094 L 59.84375 625.398438 C 59.363281 614.433594 58.597656 597.660156 57.695312 579.804688 C 57.027344 566.472656 56.289062 552.5 55.550781 539.9375 C 54.691406 525.386719 53.835938 512.722656 53.082031 502.21875 C 52.328125 491.800781 51.660156 483.503906 51.167969 477.597656 C 50.675781 471.769531 50.355469 468.328125 50.035156 466.242188 L 50.035156 466.210938 C 49.746094 464.355469 49.515625 463.703125 49.164062 463.308594 C 48.511719 462.554688 47.164062 462.394531 45.308594 462.179688 L 45.074219 462.148438 C 43.914062 462.003906 42.566406 461.832031 41.390625 461.324219 C 40.054688 460.742188 39.011719 459.753906 38.75 458.058594 C 38.34375 455.273438 40.34375 450.601562 43.160156 444.03125 L 51.703125 423.964844 C 53.285156 420.238281 53.285156 420.238281 44.234375 408.964844 L 44.132812 408.835938 C 34.660156 397.027344 15.84375 373.566406 7.441406 360.179688 C 3.089844 353.230469 1.480469 348.875 2.480469 344.539062 C 3.46875 340.257812 6.964844 336.253906 12.855469 329.914062 C 19.46875 322.808594 29.175781 312.652344 39.082031 302.859375 C 46.46875 295.546875 53.953125 288.441406 60.320312 282.941406 C 67.824219 276.484375 73.828125 272.21875 79.183594 269.289062 C 84.578125 266.332031 89.324219 264.71875 94.296875 263.558594 C 99.246094 262.398438 104.4375 261.6875 109.515625 261.253906 C 114.566406 260.816406 119.570312 260.65625 124.15625 260.601562 C 128.8125 260.542969 133.046875 260.585938 136.71875 260.757812 C 140.289062 260.917969 143.363281 261.210938 145.828125 261.601562 L 145.859375 261.617188 C 148.367188 262.023438 150.253906 262.558594 151.648438 263.082031 C 153.082031 263.617188 154.011719 264.125 154.621094 264.460938 C 154.707031 264.503906 154.738281 264.460938 155.214844 263.082031 L 158.871094 252.722656 C 159.613281 250.632812 159.613281 250.605469 158.609375 249.007812 L 158.539062 248.894531 C 157.21875 246.789062 154.648438 242.710938 153.070312 239.566406 C 152.242188 237.953125 151.675781 236.5625 151.269531 235.445312 C 150.863281 234.3125 150.632812 233.457031 150.472656 232.90625 L 150.472656 232.863281 C 150.355469 232.515625 150.179688 232.484375 143.898438 231.960938 L 143.855469 231.960938 C 136.632812 231.351562 122.210938 230.121094 108.601562 227.132812 C 102.4375 225.796875 96.460938 224.085938 91.222656 222.34375 C 84.839844 220.226562 79.488281 218.050781 76.238281 216.410156 C 72.855469 214.714844 71.492188 213.40625 71.710938 211.683594 C 71.914062 210.113281 73.523438 208.636719 76.179688 206.34375 L 76.847656 205.761719 C 81.820312 201.453125 90.089844 194.289062 97.332031 184.015625 C 100.871094 178.996094 104.191406 173.207031 107.167969 167.203125 C 110.546875 160.355469 113.519531 153.175781 115.898438 146.484375 C 118.164062 140.132812 119.90625 134.242188 121.425781 129.046875 C 122.9375 123.914062 124.257812 119.460938 125.679688 115.933594 C 127.144531 112.261719 128.738281 109.59375 131.132812 107.621094 C 133.511719 105.648438 136.632812 104.402344 141.171875 103.589844 C 146.03125 102.71875 152.605469 102.324219 161.324219 103.125 C 168.359375 103.777344 176.804688 105.199219 186.871094 107.765625 C 198.664062 110.769531 212.765625 115.367188 225.792969 120.546875 C 237.558594 125.21875 248.46875 130.367188 256.042969 135.242188 C 264.167969 140.480469 268.519531 145.441406 270.710938 150.546875 C 272.898438 155.667969 272.898438 160.863281 272.335938 166.59375 C 271.609375 173.933594 269.957031 182.1875 268.359375 190.136719 C 267.519531 194.359375 266.675781 198.507812 266.039062 202.25 C 265.09375 207.75 264.484375 212.683594 264.355469 217.789062 C 264.226562 222.894531 264.574219 228.207031 265.515625 234.488281 C 266.402344 240.433594 267.835938 247.210938 269.449219 253.695312 C 271.261719 261.007812 273.320312 268 275.089844 273.105469 C 276.441406 276.964844 277.644531 279.777344 278.527344 281.808594 L 278.542969 281.851562 C 280.050781 285.363281 280.691406 286.886719 279.285156 287.976562 C 278.3125 288.699219 276.179688 288.746094 272.480469 287.570312 C 269.636719 286.65625 265.734375 285.03125 260.539062 282.433594 C 251.457031 277.921875 238.316406 270.390625 227.8125 264.371094 L 220.644531 260.28125 C 215.203125 257.191406 211.417969 255.101562 208.675781 253.695312 C 206.007812 252.300781 204.382812 251.578125 203.25 251.171875 C 201.523438 250.5625 201.042969 250.835938 199.320312 251.824219 L 198.695312 252.1875 C 196.214844 253.59375 191.730469 255.941406 189.367188 257.191406 L 189.148438 257.308594 C 187.496094 258.164062 187.496094 258.191406 187.65625 259.757812 L 188.570312 268.898438 C 188.714844 270.40625 188.714844 270.40625 192.601562 271.203125 C 194.964844 271.683594 198.507812 272.421875 202.757812 273.554688 C 207.066406 274.714844 212.199219 276.3125 217.773438 278.546875 C 223.328125 280.765625 229.347656 283.625 235.820312 287.351562 C 242.289062 291.078125 249.210938 295.679688 256.621094 301.378906 C 263.222656 306.472656 270.214844 312.449219 276.859375 318.441406 C 285.070312 325.855469 292.789062 333.339844 298.59375 339.273438 C 303.832031 344.613281 307.5 348.703125 310.214844 352.011719 C 312.941406 355.316406 314.695312 357.871094 316.058594 360.148438 C 317.480469 362.46875 318.511719 364.515625 319.0625 366.894531 C 319.613281 369.273438 319.703125 371.988281 319.222656 375.597656 C 318.730469 379.355469 317.628906 384.128906 315.769531 389.902344 C 314.128906 395.011719 311.882812 400.929688 308.9375 407.617188 C 305.890625 414.523438 302.074219 422.3125 298.171875 429.726562 C 294.066406 437.558594 289.859375 444.988281 286.347656 450.617188 C 283.144531 455.75 280.503906 459.40625 278.339844 461.917969 C 275.742188 464.921875 273.742188 466.34375 272.203125 466.703125 C 269.273438 467.371094 268.242188 464.992188 266.894531 461.832031 L 266.210938 460.277344 C 265.457031 458.59375 264.484375 456.796875 263.542969 455.15625 C 262.570312 453.460938 261.65625 451.964844 260.988281 450.921875 C 260.511719 450.167969 260.207031 449.703125 259.945312 449.703125 C 259.335938 449.730469 258.21875 450.414062 256.058594 451.964844 C 254.140625 453.359375 251.5 455.390625 248.746094 457.566406 C 244.769531 460.683594 240.5625 464.09375 237.894531 466.253906 C 235.730469 468.023438 234.613281 468.953125 234.207031 469.648438 C 233.902344 470.15625 234.019531 470.765625 234.265625 471.925781 L 234.527344 473.132812 C 235.195312 476.191406 236.238281 480.996094 236.675781 485.289062 C 236.921875 487.726562 236.980469 489.972656 236.863281 491.890625 C 236.746094 493.964844 236.429688 495.691406 235.964844 496.910156 C 235.425781 498.285156 234.6875 499.070312 233.6875 499.492188 C 232.757812 499.882812 231.699219 499.910156 230.378906 499.824219 C 229.277344 499.753906 227.957031 499.59375 226.695312 499.449219 C 225.300781 499.273438 223.964844 499.113281 223.152344 499.097656 C 223.023438 499.097656 222.949219 499.1875 222.9375 501.710938 C 222.9375 505.234375 223.355469 512.285156 224.226562 526.167969 L 225.792969 550.816406 C 227.621094 579.367188 229.945312 615.867188 231.164062 637.148438 C 231.960938 651.222656 232.265625 658.5625 232.121094 662.464844 C 231.960938 667.0625 231.089844 667.601562 229.625 667.933594 C 227.957031 668.328125 225.359375 668.253906 221.601562 668.152344 L 218.539062 668.078125 C 215.609375 668.023438 212.128906 667.992188 208.980469 668.023438 C 206.414062 668.050781 204.035156 668.136719 202.351562 668.269531 C 200.753906 668.398438 199.957031 668.558594 199.652344 668.847656 C 199.433594 669.039062 199.390625 669.589844 199.347656 670.472656 C 199.304688 671.589844 199.246094 673.128906 199.304688 674.710938 C 199.363281 676.277344 199.523438 677.902344 199.855469 679.222656 L 199.871094 679.292969 C 200.175781 680.484375 200.667969 681.441406 201.480469 682.269531 C 202.363281 683.152344 203.671875 683.921875 205.570312 684.734375 C 207.746094 685.648438 210.707031 686.578125 213.824219 687.15625 C 216.320312 687.605469 218.933594 687.824219 221.296875 687.621094 C 223.910156 687.390625 226.289062 686.605469 228.464844 685.605469 C 230.667969 684.574219 232.699219 683.296875 234.570312 682.109375 L 235.542969 681.484375 C 239.027344 679.25 241.914062 677.394531 243.742188 677.046875 C 245.265625 676.753906 246.191406 677.21875 246.65625 678.84375 C 246.976562 679.933594 246.988281 681.671875 246.816406 684.3125 C 246.613281 687.242188 246.175781 691.378906 245.394531 695.601562 C 244.8125 698.75 244.03125 701.941406 243.015625 704.726562 C 241.8125 708.019531 240.273438 710.714844 238.429688 712.996094 C 236.589844 715.273438 234.425781 717.128906 231.976562 718.726562 C 229.550781 720.304688 226.824219 721.65625 223.808594 722.742188 C 220.820312 723.832031 217.511719 724.6875 213.941406 725.28125 C 210.039062 725.933594 205.773438 726.296875 201.652344 726.066406 C 198.15625 725.875 194.75 725.238281 191.730469 723.992188 C 188.410156 722.628906 185.59375 720.523438 183.316406 718.40625 C 181.082031 716.332031 179.355469 714.226562 178.210938 712.835938 C 176.90625 711.238281 176.90625 711.238281 176.757812 711.472656 L 176.714844 711.527344 C 176.25 712.296875 175.539062 713.429688 174.613281 714.53125 C 173.609375 715.707031 172.347656 716.867188 170.8125 717.550781 L 170.738281 717.578125 C 169.171875 718.246094 167.371094 718.433594 165.371094 718.101562 L 165.328125 718.101562 C 163.441406 717.78125 161.351562 716.984375 159.117188 715.707031 C 156.8125 714.402344 154.300781 712.53125 152.226562 710.613281 C 150.253906 708.789062 148.660156 706.886719 147.933594 705.289062 C 146.425781 701.925781 148.253906 700.125 151.980469 696.457031 L 153.375 695.078125 C 155.289062 693.164062 157.625 690.710938 159.929688 688.230469 C 162.757812 685.167969 165.53125 682.09375 167.460938 679.902344 C 169.15625 677.960938 170.171875 676.726562 170.78125 675.679688 C 171.347656 674.710938 171.582031 673.839844 171.738281 672.578125 C 171.886719 671.269531 171.988281 669.558594 172 667.933594 C 172.015625 666.121094 171.957031 664.367188 171.839844 663.292969 C 171.738281 662.292969 171.480469 662.246094 170 662 L 168.605469 661.785156 C 166.878906 661.480469 164.355469 660.925781 161.773438 660.304688 C 159.261719 659.710938 156.769531 659.042969 154.996094 658.519531 C 152.953125 657.894531 151.660156 657.375 150.804688 656.210938 C 149.976562 655.082031 149.730469 653.5 149.789062 650.816406 L 149.933594 647.507812 C 150.226562 642.167969 150.703125 633.550781 149.269531 619.4375 C 148.238281 609.367188 146.234375 596.488281 144.304688 584.023438 C 142.882812 574.769531 141.476562 565.730469 140.535156 558.289062 C 139.273438 548.191406 138.820312 540.921875 138.503906 535.585938 C 138.257812 531.609375 138.082031 528.707031 137.691406 526.574219 C 137.253906 524.226562 136.558594 522.789062 135.746094 521.890625 C 134.992188 521.019531 134.078125 520.597656 133.222656 520.292969 C 132.539062 520.046875 131.917969 519.859375 131.570312 520.179688 C 130.972656 520.6875 130.480469 522.050781 130.132812 525.023438 C 129.753906 528.257812 129.625 533.191406 129.652344 539.328125 C 129.667969 545.464844 129.855469 552.835938 130.101562 560.914062 C 130.351562 568.953125 130.667969 577.714844 131.089844 586.476562 C 131.496094 595.152344 132.03125 603.796875 132.730469 611.703125 C 133.484375 620.320312 134.410156 627.921875 135.167969 634.207031 C 135.820312 639.472656 136.355469 643.839844 136.574219 647.117188 C 136.835938 650.800781 136.691406 653.167969 136.296875 654.71875 C 135.847656 656.515625 135.066406 657.359375 134.121094 657.867188 C 132.628906 658.664062 130.945312 658.519531 129.144531 658.34375 L 128.320312 658.289062 C 127.390625 658.214844 126.449219 658.1875 125.636719 658.214844 C 124.878906 658.257812 124.226562 658.359375 123.835938 658.546875 C 123.648438 658.648438 123.546875 658.824219 123.503906 659.15625 L 123.503906 659.1875 C 123.429688 659.839844 123.53125 660.855469 123.761719 662.421875 C 124.039062 664.308594 124.503906 666.917969 125.140625 669.792969 C 125.636719 671.996094 126.242188 674.40625 126.96875 676.828125 C 127.722656 679.335938 128.609375 681.816406 129.480469 684.082031 C 130.554688 686.835938 131.640625 689.304688 132.539062 691.175781 C 133.351562 692.84375 134.035156 694.0625 134.558594 695.003906 C 135.121094 696.019531 135.527344 696.761719 135.789062 697.5 C 136.125 698.398438 136.226562 699.285156 135.558594 700.402344 L 135.515625 700.472656 C 134.964844 701.332031 133.890625 702.332031 131.945312 703.609375 C 129.957031 704.898438 127.027344 706.523438 123.9375 708.078125 C 121.035156 709.511719 117.960938 710.90625 115.320312 711.890625 C 112.738281 712.863281 110.574219 713.457031 108.804688 713.75 C 106.703125 714.082031 105.078125 714.007812 103.917969 713.675781 C 101.683594 713.007812 101.042969 711.558594 100.378906 710.019531 L 100.203125 709.613281 C 99.882812 708.890625 99.507812 708.191406 99.128906 707.554688 C 98.78125 707.003906 98.417969 706.480469 98.070312 706.089844 C 97.78125 705.769531 97.492188 705.550781 97.070312 705.4375 C 96.5625 705.289062 95.792969 705.277344 94.589844 705.378906 Z M 52.808594 416.582031 C 57.464844 420.28125 62.136719 423.980469 66.546875 427.5625 C 70.914062 431.089844 74.917969 434.410156 78.167969 437.285156 C 82.707031 441.300781 85.738281 444.390625 87.84375 446.539062 L 90.019531 448.730469 C 90.773438 449.441406 91.238281 449.816406 91.46875 449.761719 C 91.863281 449.644531 92.414062 448.890625 93.3125 447.308594 C 94.023438 446.046875 94.90625 444.320312 95.9375 442.289062 C 97.898438 438.460938 100.40625 433.554688 103.453125 428.535156 C 105.484375 425.199219 107.703125 421.878906 109.878906 418.816406 L 109.910156 418.773438 C 112.808594 414.695312 115.609375 411.039062 117.773438 408.3125 C 119.511719 406.121094 120.992188 404.367188 122.136719 403.003906 C 123.3125 401.609375 124.15625 400.609375 124.867188 399.609375 C 125.402344 398.824219 125.851562 398.070312 125.691406 397.199219 C 125.488281 396.171875 124.546875 394.792969 122.253906 392.804688 C 120.238281 391.050781 117.207031 388.875 113.925781 386.652344 C 109.140625 383.417969 103.960938 380.199219 100.378906 378.023438 C 94.285156 374.308594 92.675781 373.539062 91.078125 372.785156 C 90.890625 372.699219 90.746094 372.566406 90.644531 372.40625 C 90.46875 372.144531 90.410156 371.8125 90.527344 371.492188 C 90.628906 371.175781 90.890625 370.929688 91.195312 370.828125 C 91.457031 370.753906 91.730469 370.753906 91.976562 370.882812 C 93.574219 371.636719 95.167969 372.40625 101.464844 376.222656 C 105.179688 378.472656 110.472656 381.765625 115.117188 384.898438 C 118.4375 387.148438 121.527344 389.394531 123.632812 391.222656 C 126.332031 393.558594 127.460938 395.328125 127.753906 396.808594 C 128.070312 398.460938 127.40625 399.636719 126.578125 400.8125 C 125.941406 401.726562 125.140625 402.683594 124.082031 403.945312 C 128.070312 404.992188 131.640625 405.816406 134.5 406.324219 C 141.898438 407.617188 144.640625 406.703125 147.382812 405.789062 C 154.839844 394.820312 162.308594 383.855469 171.449219 376.078125 C 180.589844 368.300781 191.410156 363.730469 199.941406 362.976562 C 208.472656 362.207031 214.726562 365.253906 220.136719 369.390625 C 225.546875 373.511719 230.101562 378.71875 232.207031 385.175781 C 233.671875 389.714844 233.917969 394.863281 234.207031 399.289062 C 234.457031 397.910156 234.628906 396.664062 234.730469 395.53125 C 235.019531 392.644531 234.949219 390.425781 234.671875 388.496094 C 234.222656 385.390625 233.265625 382.996094 232.570312 381.242188 L 232.105469 380.039062 C 231.714844 378.992188 231.523438 378.210938 231.46875 376.65625 C 231.421875 375.222656 231.496094 373.074219 231.65625 369.257812 C 232.148438 357.304688 232.65625 345.335938 233.222656 333.382812 C 233.394531 329.539062 233.484375 327.886719 233.484375 326.304688 L 233.484375 326.085938 C 233.484375 324.941406 233.484375 323.851562 234.207031 323.300781 L 234.28125 323.242188 C 235.222656 322.617188 236.777344 323.402344 239.707031 327.175781 C 241.984375 330.132812 245.480469 335.09375 249.195312 340.664062 C 252.792969 346.0625 256.667969 352.082031 259.917969 357.449219 C 262.730469 362.09375 265.039062 366.140625 266.878906 369.550781 C 269.402344 374.234375 271.128906 377.832031 272.175781 380.15625 C 274.265625 384.839844 273.972656 385.074219 267.460938 390.179688 L 267.167969 390.398438 C 264.136719 392.777344 259.625 396.34375 255.097656 400.085938 C 250.644531 403.773438 246.265625 407.558594 243.550781 410.371094 C 240.953125 413.058594 239.894531 414.785156 239.648438 416.074219 C 239.429688 417.175781 239.894531 418.03125 240.402344 418.960938 L 240.824219 419.699219 C 241.332031 420.628906 241.855469 421.574219 242.332031 422.5 L 242.160156 422.023438 C 242.464844 422.542969 242.796875 423.109375 243.1875 423.734375 C 246.945312 429.769531 254.417969 440.070312 258.144531 445.21875 L 259.886719 447.597656 C 261.308594 447.554688 261.890625 448.398438 262.757812 449.804688 C 263.46875 450.921875 264.429688 452.472656 265.371094 454.113281 C 266.34375 455.796875 267.34375 457.667969 268.128906 459.40625 L 268.839844 461.003906 C 269.78125 463.25 270.507812 464.933594 271.738281 464.644531 C 272.855469 464.382812 274.480469 463.179688 276.757812 460.539062 C 278.832031 458.117188 281.417969 454.546875 284.5625 449.5 C 288.0625 443.898438 292.238281 436.515625 296.316406 428.753906 C 300.1875 421.382812 303.976562 413.652344 307.007812 406.773438 C 309.9375 400.144531 312.15625 394.300781 313.769531 389.265625 C 315.597656 383.621094 316.667969 378.964844 317.132812 375.339844 C 317.582031 371.988281 317.511719 369.519531 317.003906 367.375 C 316.507812 365.226562 315.566406 363.355469 314.277344 361.238281 C 312.957031 359.046875 311.257812 356.582031 308.589844 353.34375 C 305.933594 350.09375 302.292969 346.046875 297.085938 340.738281 C 291.339844 334.863281 283.664062 327.40625 275.453125 319.992188 C 268.839844 314.03125 261.890625 308.097656 255.332031 303.046875 C 248.003906 297.40625 241.144531 292.851562 234.773438 289.179688 C 228.40625 285.507812 222.488281 282.679688 216.988281 280.488281 C 215.363281 279.835938 213.78125 279.242188 212.230469 278.691406 C 211.984375 283.667969 209.648438 289.703125 205.6875 295.648438 C 201.421875 302.046875 195.199219 309.707031 186.523438 312.449219 C 164.324219 319.457031 150.949219 321.082031 139.328125 296.027344 C 135.90625 288.644531 135.28125 278.894531 135.136719 271.351562 C 135.066406 268.160156 135.09375 265.359375 135.371094 262.804688 C 132.03125 262.675781 128.261719 262.644531 124.183594 262.703125 C 119.6875 262.746094 114.753906 262.921875 109.691406 263.355469 C 104.699219 263.777344 99.609375 264.472656 94.777344 265.605469 C 89.960938 266.722656 85.375 268.289062 80.195312 271.117188 C 74.960938 273.992188 69.085938 278.167969 61.699219 284.535156 C 55.359375 290.007812 47.902344 297.070312 40.5625 304.339844 C 30.699219 314.101562 21.007812 324.242188 14.390625 331.351562 C 8.746094 337.429688 5.398438 341.230469 4.527344 345.003906 C 3.683594 348.703125 5.195312 352.648438 9.210938 359.0625 C 17.523438 372.320312 36.3125 395.734375 45.769531 407.53125 L 45.886719 407.660156 C 49.222656 411.824219 51.429688 414.566406 52.808594 416.582031 Z M 121.136719 407.5 L 119.773438 409.183594 C 120.5 409.515625 121.253906 409.851562 122.082031 410.15625 C 123.167969 410.574219 124.402344 410.953125 125.910156 411.300781 L 125.984375 411.316406 C 127.550781 411.648438 129.449219 411.953125 131.496094 412.15625 C 133.382812 412.332031 135.398438 412.433594 137.402344 412.417969 C 139.488281 412.390625 141.578125 412.246094 143.738281 411.882812 C 145.902344 411.519531 148.152344 410.9375 150.585938 410.066406 C 153.125 409.140625 155.839844 407.890625 158.582031 406.628906 L 158.609375 406.617188 C 161.003906 405.511719 163.441406 404.394531 165.71875 403.511719 C 168.300781 402.496094 170.769531 401.753906 172.609375 401.507812 C 173.859375 401.347656 174.699219 401.378906 174.875 401.667969 C 175.089844 402.058594 174.65625 403.148438 173.945312 404.453125 C 173.117188 405.992188 171.871094 407.761719 170.78125 409.257812 L 170.101562 410.199219 C 168.054688 412.984375 166.691406 414.871094 167.402344 416.320312 L 167.429688 416.394531 C 168.039062 417.511719 169.578125 417.773438 171.882812 418.148438 C 172.828125 418.292969 173.929688 418.484375 175.179688 418.757812 C 177.265625 419.207031 179.691406 419.902344 181.519531 420.671875 C 182.707031 421.179688 183.605469 421.675781 183.824219 422.023438 L 183.679688 422.125 C 183.332031 422.398438 182.792969 422.675781 182.113281 422.9375 C 180.75 423.457031 178.847656 423.9375 176.816406 424.3125 C 175.265625 424.589844 173.523438 424.835938 171.957031 425.070312 C 169.230469 425.445312 166.9375 425.78125 166.050781 426.390625 L 165.835938 426.5625 C 165.195312 427.246094 165.296875 427.882812 165.964844 428.523438 C 166.574219 429.101562 168.082031 429.683594 169.941406 430.394531 C 170.839844 430.742188 171.855469 431.132812 173.046875 431.640625 C 174.988281 432.46875 176.90625 433.441406 178.355469 434.382812 C 179.53125 435.152344 180.402344 435.875 180.660156 436.429688 C 180.734375 436.574219 180.558594 436.761719 180.152344 436.980469 C 179.253906 437.445312 177.671875 437.820312 175.484375 438.125 L 171.652344 438.574219 C 167.503906 439.023438 162.992188 439.503906 161.121094 440.824219 C 158.550781 442.636719 160.132812 445.101562 161.6875 447.46875 L 162.601562 448.933594 C 162.90625 449.484375 163.136719 450.007812 163.28125 450.457031 C 163.441406 450.980469 163.5 451.429688 163.441406 451.746094 C 163.425781 451.90625 163.367188 452.007812 163.296875 452.066406 L 163.195312 452.109375 C 162.804688 452.242188 162.09375 452.109375 161.207031 451.804688 C 160.074219 451.429688 158.742188 450.761719 157.390625 449.964844 C 156.578125 449.46875 155.679688 448.875 154.867188 448.339844 C 152.9375 447.046875 151.355469 446.003906 150.414062 446.570312 C 149.484375 447.121094 149.730469 448.09375 150.109375 449.570312 C 150.414062 450.761719 150.847656 452.457031 150.847656 454.402344 C 150.847656 456.203125 150.484375 458.21875 149.90625 459.957031 C 149.367188 461.582031 148.671875 462.933594 147.960938 463.484375 C 147.554688 463.832031 147.046875 463.730469 146.480469 463.28125 C 145.613281 462.585938 144.652344 461.25 143.636719 459.464844 L 143.59375 459.378906 C 142.898438 458.117188 142.203125 456.738281 141.460938 455.289062 C 139.765625 451.878906 137.804688 447.988281 135.296875 444.640625 C 133.453125 442.1875 131.308594 440.039062 129.015625 438.097656 C 126.738281 436.195312 124.269531 434.46875 121.730469 432.859375 C 117.308594 430.03125 112.738281 427.535156 108.125 425.082031 L 106.976562 426.851562 C 111.621094 429.332031 116.25 431.84375 120.601562 434.628906 C 123.039062 436.179688 125.433594 437.851562 127.664062 439.722656 C 129.855469 441.550781 131.886719 443.59375 133.613281 445.902344 C 136.035156 449.105469 137.9375 452.910156 139.589844 456.230469 C 140.375 457.769531 141.101562 459.234375 141.765625 460.410156 L 141.824219 460.496094 C 142.972656 462.527344 144.089844 464.0625 145.160156 464.921875 C 146.582031 466.050781 147.949219 466.195312 149.28125 465.125 C 150.3125 464.296875 151.253906 462.597656 151.90625 460.613281 C 152.546875 458.683594 152.953125 456.417969 152.953125 454.402344 C 152.953125 452.226562 152.472656 450.355469 152.140625 449.050781 C 151.996094 448.496094 151.082031 448.628906 151.488281 448.382812 C 151.675781 448.265625 152.371094 449.207031 153.707031 450.09375 C 154.488281 450.617188 155.359375 451.195312 156.316406 451.761719 C 157.785156 452.648438 159.25 453.371094 160.523438 453.808594 C 161.832031 454.242188 162.976562 454.386719 163.832031 454.113281 L 164.382812 453.867188 C 165.007812 453.488281 165.398438 452.863281 165.515625 452.097656 C 165.632812 451.441406 165.542969 450.660156 165.285156 449.832031 C 165.09375 449.222656 164.820312 448.570312 164.441406 447.917969 L 163.441406 446.320312 C 162.441406 444.785156 161.410156 443.1875 162.339844 442.550781 C 163.761719 441.535156 167.980469 441.085938 171.871094 440.664062 L 175.773438 440.214844 C 178.195312 439.867188 179.996094 439.429688 181.113281 438.851562 C 182.734375 438.007812 183.242188 436.90625 182.5625 435.5 C 182.113281 434.601562 180.980469 433.597656 179.5 432.628906 C 177.917969 431.613281 175.902344 430.582031 173.871094 429.710938 L 168.738281 427.664062 L 172.261719 427.144531 C 173.800781 426.925781 175.496094 426.695312 177.195312 426.375 C 179.328125 425.984375 181.359375 425.476562 182.867188 424.894531 C 183.765625 424.546875 184.492188 424.167969 185 423.761719 L 185.058594 423.707031 C 185.738281 423.140625 186.058594 422.457031 185.929688 421.6875 L 185.828125 421.355469 C 185.464844 420.382812 184.101562 419.496094 182.328125 418.742188 C 180.371094 417.917969 177.804688 417.164062 175.628906 416.699219 C 174.378906 416.421875 173.21875 416.234375 172.234375 416.074219 C 170.535156 415.796875 169.402344 415.609375 169.273438 415.390625 C 169.15625 415.058594 170.214844 413.609375 171.796875 411.445312 L 172.480469 410.488281 C 173.597656 408.953125 174.886719 407.125 175.789062 405.453125 C 176.816406 403.570312 177.355469 401.800781 176.703125 400.636719 C 176.046875 399.476562 174.453125 399.160156 172.335938 399.433594 C 170.332031 399.695312 167.691406 400.480469 164.964844 401.550781 C 162.585938 402.464844 160.148438 403.597656 157.738281 404.699219 L 157.695312 404.730469 C 154.996094 405.960938 152.328125 407.195312 149.863281 408.09375 C 147.585938 408.921875 145.4375 409.472656 143.390625 409.808594 C 141.347656 410.15625 139.359375 410.300781 137.386719 410.316406 C 135.457031 410.328125 133.511719 410.226562 131.699219 410.054688 C 129.769531 409.878906 127.957031 409.589844 126.445312 409.257812 L 126.375 409.242188 C 124.980469 408.9375 123.835938 408.574219 122.820312 408.195312 C 122.226562 407.964844 121.660156 407.734375 121.136719 407.5 Z M 103.511719 432.582031 C 101.292969 436.441406 99.363281 440.199219 97.808594 443.246094 C 96.765625 445.292969 95.867188 447.046875 95.140625 448.339844 C 93.9375 450.441406 93.050781 451.5 92.035156 451.777344 C 90.847656 452.109375 89.886719 451.488281 88.582031 450.269531 L 86.335938 448.003906 C 84.257812 445.871094 81.257812 442.824219 76.773438 438.851562 C 73.582031 436.035156 69.605469 432.742188 65.226562 429.1875 C 61.960938 426.546875 58.378906 423.691406 54.722656 420.789062 C 54.824219 422.007812 54.359375 423.109375 53.632812 424.792969 C 50.789062 431.480469 47.960938 438.183594 45.089844 444.855469 C 42.417969 451.09375 40.503906 455.546875 40.839844 457.753906 C 40.953125 458.582031 41.519531 459.089844 42.230469 459.394531 C 43.117188 459.769531 44.292969 459.929688 45.335938 460.058594 L 45.554688 460.074219 C 47.890625 460.351562 49.570312 460.566406 50.761719 461.945312 C 51.371094 462.644531 51.761719 463.570312 52.109375 465.890625 L 52.109375 465.921875 C 52.445312 468.070312 52.765625 471.550781 53.273438 477.441406 C 53.75 483.257812 54.417969 491.542969 55.1875 502.058594 C 55.941406 512.488281 56.78125 525.140625 57.652344 539.820312 C 58.378906 552.3125 59.117188 566.296875 59.800781 579.714844 C 60.683594 597.503906 61.46875 614.300781 61.945312 625.3125 L 62.105469 628.910156 C 62.773438 644.359375 62.832031 645.710938 64.441406 647.261719 C 65.472656 648.25 67.066406 649.394531 69.097656 650.496094 C 70.925781 651.5 73.101562 652.484375 75.527344 653.3125 C 78.167969 654.210938 81.082031 654.9375 83.707031 655.488281 L 83.519531 654.617188 C 81.097656 643.183594 79.734375 619.566406 77.746094 588.175781 C 75.773438 556.792969 73.175781 517.625 71.957031 496.53125 C 70.738281 475.421875 70.898438 472.378906 74.46875 471.695312 C 78.050781 471 85.058594 472.683594 88.566406 475.582031 C 92.066406 478.46875 92.066406 482.589844 92.90625 502.089844 C 93.746094 521.585938 95.429688 556.476562 98.011719 586.449219 C 100.609375 616.40625 104.105469 641.429688 103.410156 653.644531 C 103.324219 655.210938 103.148438 656.5625 102.929688 657.734375 L 104.453125 657.792969 C 110.675781 657.996094 116.261719 657.851562 121.789062 657.679688 C 122.050781 657.230469 122.414062 656.925781 122.90625 656.675781 C 123.589844 656.34375 124.503906 656.167969 125.519531 656.125 C 126.460938 656.066406 127.492188 656.113281 128.476562 656.183594 L 129.320312 656.257812 C 130.507812 656.359375 131.640625 656.460938 132.527344 656.242188 C 129.59375 651.222656 126.910156 644.417969 124.675781 636.089844 C 121.167969 623.0625 118.730469 606.308594 116.453125 584.519531 C 114.160156 562.726562 112.027344 535.917969 110.734375 517.40625 C 109.445312 498.882812 108.980469 488.683594 111.34375 483.578125 L 111.535156 483.171875 C 111.996094 480.269531 112.652344 477.121094 113.519531 473.972656 C 115.988281 465.210938 120.253906 456.535156 122.386719 451.195312 C 124.519531 445.859375 124.519531 443.882812 119.714844 440.765625 C 116.234375 438.488281 110.214844 435.617188 103.511719 432.582031 Z M 154.679688 266.851562 C 156.710938 271.769531 158.726562 276.703125 159.816406 282.78125 C 160.324219 285.609375 160.625 288.699219 160.773438 291.777344 C 160.945312 295.359375 160.917969 298.941406 160.757812 302.121094 C 160.613281 304.992188 160.351562 307.515625 160.164062 309.519531 C 159.945312 311.765625 159.785156 313.378906 159.917969 314.175781 C 160.074219 315.207031 160.613281 315.582031 161.425781 315.453125 C 162.238281 315.320312 163.019531 314.234375 164.050781 312.8125 L 164.921875 311.621094 L 166.953125 309.011719 C 168.386719 307.167969 170.214844 304.863281 172.695312 301.421875 C 174.917969 298.347656 177.542969 294.546875 180.082031 290.875 L 185.332031 283.304688 C 188.757812 278.472656 190.832031 275.863281 192.820312 273.394531 L 192.179688 273.265625 L 190.496094 272.917969 C 188.699219 275.179688 186.695312 277.746094 183.621094 282.085938 L 178.339844 289.6875 C 175.773438 293.414062 173.089844 297.289062 170.984375 300.203125 C 168.589844 303.527344 166.75 305.863281 165.296875 307.707031 L 163.222656 310.390625 L 162.035156 312.027344 L 162.25 309.707031 C 162.453125 307.660156 162.714844 305.078125 162.859375 302.222656 C 163.019531 298.984375 163.050781 295.332031 162.875 291.675781 C 162.730469 288.511719 162.410156 285.335938 161.890625 282.433594 C 160.773438 276.152344 158.699219 271.101562 156.609375 266.070312 C 156.578125 265.96875 156.519531 265.867188 156.464844 265.792969 C 155.925781 267.070312 155.578125 267.257812 154.679688 266.851562 Z M 92.675781 703.464844 L 94.398438 703.273438 C 95.867188 703.144531 96.851562 703.203125 97.636719 703.417969 C 98.519531 703.652344 99.070312 704.085938 99.621094 704.683594 C 100.058594 705.160156 100.507812 705.785156 100.929688 706.464844 C 101.347656 707.175781 101.769531 707.960938 102.117188 708.742188 L 102.308594 709.164062 C 102.769531 710.253906 103.222656 711.28125 104.511719 711.660156 C 105.398438 711.921875 106.703125 711.964844 108.457031 711.675781 C 110.097656 711.398438 112.128906 710.847656 114.582031 709.933594 C 117.132812 708.976562 120.136719 707.613281 122.996094 706.191406 C 126.054688 704.652344 128.914062 703.070312 130.800781 701.839844 C 132.46875 700.75 133.339844 699.980469 133.730469 699.371094 L 133.757812 699.3125 C 133.992188 698.921875 133.949219 698.574219 133.800781 698.195312 C 133.613281 697.632812 133.238281 696.964844 132.730469 696.035156 C 132.191406 695.078125 131.496094 693.84375 130.65625 692.089844 C 129.726562 690.1875 128.625 687.648438 127.519531 684.835938 C 126.605469 682.484375 125.707031 679.945312 124.953125 677.421875 C 124.519531 676 124.125 674.550781 123.777344 673.144531 C 121.472656 674.246094 118.382812 674.769531 115.929688 675.085938 C 112.085938 675.582031 109.808594 675.582031 105.527344 674.695312 C 102.21875 674.011719 97.707031 672.808594 93.90625 670.792969 C 93.847656 671.546875 93.71875 672.214844 93.398438 672.839844 C 92.820312 673.984375 91.746094 674.78125 89.640625 675.21875 C 87.65625 675.625 84.609375 675.753906 81.34375 675.40625 C 78.644531 675.117188 75.757812 674.507812 73.191406 673.492188 C 68.082031 671.460938 64.296875 667.820312 61.539062 665.191406 L 60.726562 664.410156 C 59.421875 663.175781 58.421875 662.320312 57.625 661.945312 C 57.085938 661.683594 56.636719 661.710938 56.203125 662.03125 C 55.476562 662.582031 54.707031 663.785156 54.242188 665.800781 C 53.851562 667.5 53.679688 669.75 53.910156 672.621094 C 54.214844 676.261719 55.1875 680.859375 56.871094 685.269531 C 58.234375 688.867188 60.089844 692.320312 62.410156 694.992188 C 64.660156 697.558594 67.417969 699.414062 70.273438 700.75 C 73.960938 702.449219 77.863281 703.289062 81.242188 703.652344 C 86.144531 704.203125 89.988281 703.769531 92.675781 703.464844 Z M 173.25 660.828125 C 173.640625 661.234375 173.8125 661.886719 173.929688 663.046875 L 173.929688 663.074219 C 174.003906 663.683594 174.046875 664.496094 174.074219 665.394531 C 177.832031 665.324219 182.34375 665.699219 187.015625 665.992188 L 191.078125 666.222656 L 171.941406 513.59375 C 166.996094 515.289062 162.035156 515.230469 155.550781 513.492188 L 155.839844 515.957031 C 156.667969 523.109375 157.738281 532.554688 161.089844 555.867188 C 164.441406 579.195312 170.085938 616.363281 172.449219 637.351562 C 173.902344 650.191406 174.132812 656.96875 173.25 660.828125 Z M 170.710938 679.324219 C 170.230469 679.902344 169.679688 680.542969 169.042969 681.28125 C 167.097656 683.488281 164.296875 686.605469 161.46875 689.652344 C 159.160156 692.148438 156.796875 694.613281 154.851562 696.570312 L 153.460938 697.949219 C 150.414062 700.9375 148.933594 702.390625 149.847656 704.433594 C 150.457031 705.769531 151.878906 707.4375 153.648438 709.078125 C 155.605469 710.875 157.972656 712.632812 160.164062 713.878906 C 162.179688 715.039062 164.035156 715.75 165.691406 716.027344 L 165.71875 716.027344 C 167.300781 716.289062 168.707031 716.15625 169.898438 715.648438 L 169.957031 715.621094 C 171.144531 715.097656 172.175781 714.140625 173 713.167969 C 173.859375 712.167969 174.496094 711.121094 174.929688 710.425781 L 174.976562 710.367188 C 176.65625 707.625 176.65625 707.625 179.835938 711.5 C 180.9375 712.847656 182.605469 714.867188 184.753906 716.867188 C 186.871094 718.839844 189.496094 720.800781 192.527344 722.0625 C 195.300781 723.207031 198.492188 723.789062 201.769531 723.960938 C 205.730469 724.195312 209.835938 723.832031 213.59375 723.207031 C 217.0625 722.628906 220.222656 721.816406 223.097656 720.769531 C 225.953125 719.738281 228.535156 718.464844 230.828125 716.96875 C 233.09375 715.476562 235.109375 713.761719 236.804688 711.675781 C 238.503906 709.570312 239.925781 707.0625 241.042969 704 C 242.015625 701.359375 242.769531 698.269531 243.335938 695.222656 C 244.089844 691.117188 244.523438 687.054688 244.710938 684.183594 C 244.871094 681.761719 244.871094 680.238281 244.640625 679.425781 C 244.566406 679.148438 244.394531 679.0625 244.132812 679.105469 C 242.695312 679.382812 239.953125 681.136719 236.675781 683.253906 L 235.703125 683.878906 C 233.773438 685.113281 231.683594 686.429688 229.347656 687.503906 C 226.984375 688.609375 224.371094 689.449219 221.472656 689.710938 C 218.902344 689.941406 216.117188 689.710938 213.449219 689.21875 C 210.171875 688.621094 207.066406 687.636719 204.757812 686.664062 C 203.277344 686.039062 202.105469 685.417969 201.160156 684.734375 C 195.675781 685.269531 186.957031 684.835938 179.863281 682.980469 C 176.351562 682.050781 173.234375 680.773438 170.710938 679.324219 Z M 212.78125 665.917969 C 214.785156 665.917969 216.785156 665.949219 218.585938 665.976562 L 221.660156 666.0625 C 225.242188 666.152344 227.722656 666.222656 229.144531 665.890625 C 229.625 665.773438 229.914062 665.496094 230.03125 662.394531 C 230.160156 658.578125 229.855469 651.296875 229.058594 637.265625 C 227.855469 616.144531 225.519531 579.570312 223.691406 550.949219 L 222.125 526.300781 C 221.253906 512.417969 220.832031 505.351562 220.832031 501.710938 C 220.847656 497.097656 221.660156 496.964844 223.199219 496.996094 C 224.15625 497.011719 225.519531 497.183594 226.941406 497.359375 C 228.171875 497.503906 229.464844 497.648438 230.523438 497.722656 C 231.523438 497.792969 232.324219 497.777344 232.875 497.546875 C 233.339844 497.359375 233.699219 496.9375 234.003906 496.15625 C 234.398438 495.152344 234.660156 493.628906 234.761719 491.773438 C 234.875 489.945312 234.816406 487.8125 234.585938 485.507812 C 234.441406 484.039062 234.207031 482.503906 233.949219 480.996094 C 233.367188 481.632812 232.800781 482.242188 232.25 482.808594 C 226.605469 488.683594 222.644531 491.121094 218.222656 492.179688 C 213.8125 493.253906 208.9375 492.949219 205.816406 492.789062 C 202.683594 492.644531 201.320312 492.644531 196.519531 496.445312 C 195.097656 497.574219 193.382812 499.027344 191.484375 500.621094 C 193.109375 501.390625 194.574219 502.625 195.835938 504.453125 C 201.464844 512.605469 203.003906 532.554688 205.207031 562.421875 C 207.296875 590.8125 210.023438 628.140625 212.78125 665.917969 Z M 185.433594 258.25 C 185.433594 257.015625 185.882812 256.667969 187.609375 255.738281 C 187.40625 255.667969 187.175781 255.636719 186.957031 255.710938 C 185.578125 256.074219 184.203125 256.4375 182.578125 256.550781 C 181.75 256.609375 180.820312 256.609375 179.878906 256.539062 C 178.964844 256.464844 178.035156 256.335938 177.136719 256.132812 C 176.207031 255.929688 175.28125 255.636719 174.367188 255.320312 C 173.421875 254.984375 172.492188 254.625 171.566406 254.261719 C 171.027344 254.042969 170.40625 254.320312 170.203125 254.855469 C 170 255.390625 170.261719 256 170.796875 256.21875 C 171.753906 256.582031 172.710938 256.972656 173.667969 257.308594 C 174.65625 257.640625 175.671875 257.960938 176.6875 258.175781 C 177.703125 258.410156 178.746094 258.554688 179.734375 258.640625 C 180.761719 258.714844 181.792969 258.730469 182.722656 258.65625 C 183.707031 258.582031 184.59375 258.4375 185.433594 258.25 Z M 204.222656 249.300781 C 205.425781 249.734375 207.078125 250.488281 209.648438 251.824219 C 212.375 253.230469 216.191406 255.332031 221.675781 258.453125 L 228.855469 262.558594 C 239.316406 268.535156 252.402344 276.035156 261.46875 280.546875 C 266.589844 283.101562 270.390625 284.683594 273.117188 285.566406 C 276.0625 286.496094 277.558594 286.640625 278.007812 286.292969 C 278.125 286.207031 277.671875 285.144531 276.613281 282.679688 L 276.585938 282.636719 C 275.714844 280.605469 274.496094 277.777344 273.117188 273.800781 C 271.320312 268.636719 269.246094 261.570312 267.402344 254.203125 C 265.777344 247.601562 264.328125 240.753906 263.425781 234.792969 C 262.46875 228.421875 262.121094 222.984375 262.253906 217.746094 C 262.398438 212.507812 263.007812 207.472656 263.964844 201.890625 C 264.644531 197.957031 265.457031 193.882812 266.300781 189.71875 C 267.878906 181.839844 269.519531 173.644531 270.246094 166.390625 C 270.78125 160.964844 270.796875 156.074219 268.78125 151.375 C 266.75 146.632812 262.628906 141.988281 254.910156 137.011719 C 247.453125 132.210938 236.660156 127.117188 225.011719 122.492188 C 212.097656 117.371094 198.085938 112.800781 186.347656 109.796875 C 176.367188 107.257812 168.039062 105.851562 161.132812 105.210938 C 152.632812 104.429688 146.25 104.820312 141.535156 105.664062 C 137.386719 106.402344 134.558594 107.519531 132.46875 109.246094 C 130.394531 110.957031 128.972656 113.378906 127.621094 116.71875 C 126.246094 120.140625 124.9375 124.550781 123.445312 129.644531 C 121.90625 134.878906 120.152344 140.828125 117.886719 147.183594 C 115.480469 153.941406 112.492188 161.183594 109.039062 168.128906 C 106.019531 174.238281 102.65625 180.113281 99.058594 185.234375 C 91.660156 195.710938 83.273438 202.976562 78.222656 207.34375 L 77.542969 207.925781 C 75.28125 209.898438 73.902344 211.128906 73.800781 211.941406 C 73.710938 212.582031 74.726562 213.304688 77.179688 214.539062 C 80.328125 216.121094 85.566406 218.253906 91.875 220.34375 C 97.070312 222.070312 102.988281 223.75 109.039062 225.085938 C 122.5 228.03125 136.847656 229.25 144.03125 229.859375 L 144.058594 229.859375 C 146.554688 230.0625 148.265625 230.207031 149.457031 230.367188 C 149.238281 229.511719 149.019531 228.566406 148.832031 227.539062 C 147.671875 221.183594 147.351562 211.101562 146.875 203.863281 C 146.410156 196.609375 145.800781 192.183594 144.203125 188.761719 C 142.59375 185.335938 140.011719 182.898438 137.648438 178.097656 C 135.28125 173.296875 133.148438 166.144531 133.6875 162.023438 C 134.222656 157.902344 137.414062 156.84375 139.632812 158.671875 C 141.839844 160.5 143.058594 165.230469 144.046875 167.128906 C 145.046875 169.03125 145.800781 168.117188 146.714844 163.3125 C 147.628906 158.511719 148.703125 149.835938 149.222656 144.351562 C 149.761719 138.871094 149.761719 136.578125 149.832031 134.140625 C 149.921875 131.703125 150.066406 129.105469 153.488281 131.542969 C 156.925781 133.996094 163.628906 141.453125 171.320312 143.742188 C 179.023438 146.023438 187.699219 143.136719 193.183594 142.597656 C 198.679688 142.0625 200.957031 143.890625 203.699219 147.023438 C 206.441406 150.140625 209.648438 154.550781 214.59375 155.929688 C 219.554688 157.308594 226.257812 155.625 229.609375 155.699219 C 232.960938 155.769531 232.960938 157.597656 234.253906 160.269531 C 235.542969 162.9375 238.140625 166.449219 237.066406 172.308594 C 236.007812 178.167969 231.277344 186.410156 229.683594 189.675781 C 228.085938 192.953125 229.609375 191.269531 233.035156 189.371094 C 236.457031 187.46875 241.796875 185.335938 244.683594 186.089844 C 247.585938 186.859375 248.050781 190.515625 245.917969 194.636719 C 243.769531 198.742188 239.054688 203.3125 234.484375 205.53125 C 229.914062 207.734375 225.488281 207.574219 223.429688 208.34375 C 221.371094 209.097656 221.6875 210.78125 219.164062 216.875 C 216.65625 222.96875 211.316406 233.484375 207.515625 241.785156 C 206.253906 244.539062 205.152344 247.050781 204.222656 249.300781 Z M 221.574219 445.148438 C 221.3125 444.945312 221.136719 444.566406 221.035156 444 L 221.023438 443.898438 C 220.90625 442.882812 221.558594 440.894531 222.792969 437.269531 L 223.457031 435.3125 C 225.332031 429.855469 228.058594 421.832031 230.292969 414.523438 C 230.496094 413.519531 230.667969 412.550781 230.828125 411.578125 C 231.742188 405.976562 232.105469 400.898438 231.640625 396.664062 C 231.175781 392.339844 229.871094 388.875 228.21875 386.015625 C 226.5625 383.171875 224.5625 380.921875 222.644531 379.023438 C 220.746094 377.121094 218.945312 375.570312 217.335938 374.277344 C 211.882812 369.925781 206.585938 366.707031 199.015625 367.9375 C 196.546875 368.332031 193.515625 369.246094 190.164062 370.8125 C 187.363281 372.132812 184.332031 373.929688 181.199219 376.324219 C 177.816406 378.890625 174.308594 382.171875 170.753906 385.78125 C 167.199219 389.394531 163.617188 393.328125 160.03125 397.242188 C 159.640625 397.664062 159.667969 398.332031 160.105469 398.722656 C 160.523438 399.117188 161.191406 399.085938 161.585938 398.652344 C 165.167969 394.734375 168.765625 390.800781 172.246094 387.261719 C 175.730469 383.707031 179.167969 380.503906 182.476562 377.992188 C 185.476562 375.699219 188.378906 373.972656 191.0625 372.726562 C 194.226562 371.230469 197.054688 370.375 199.363281 370.015625 C 202.972656 369.417969 205.28125 370.042969 207.414062 370.796875 C 207.382812 371.59375 207.632812 372.753906 208.023438 374.453125 C 208.296875 375.714844 208.660156 377.324219 209.023438 379.285156 C 209.515625 381.980469 210.011719 385.363281 210.328125 388.917969 C 210.589844 391.761719 210.734375 394.71875 210.679688 397.519531 C 210.605469 400.609375 210.285156 403.527344 209.734375 406.355469 C 209.183594 409.167969 208.414062 411.910156 207.441406 414.667969 C 206.484375 417.410156 205.308594 420.207031 203.945312 423.097656 C 202.554688 425.996094 200.972656 428.957031 199.171875 432.0625 C 197.375 435.152344 195.34375 438.371094 193.195312 441.605469 C 191.003906 444.914062 188.671875 448.25 186.289062 451.441406 C 183.953125 454.605469 181.53125 457.695312 179.007812 460.699219 C 176.484375 463.703125 173.871094 466.601562 171.128906 469.386719 C 168.476562 472.101562 165.660156 474.742188 162.949219 477.136719 C 160.046875 479.703125 157.230469 481.996094 154.796875 483.792969 C 152.472656 485.519531 150.484375 486.8125 148.660156 487.785156 C 146.84375 488.742188 145.160156 489.410156 143.421875 489.871094 C 141.882812 490.292969 140.257812 490.582031 138.734375 490.773438 C 136.792969 491.003906 135.007812 491.078125 133.699219 491.0625 L 132.976562 491.046875 C 132.410156 491.019531 131.945312 491.019531 131.554688 491.078125 C 131.265625 490.800781 130.988281 490.511719 130.710938 490.191406 C 130.046875 489.453125 129.390625 488.550781 128.796875 487.40625 C 128.1875 486.246094 127.609375 484.796875 127.230469 482.878906 C 126.839844 480.921875 126.652344 478.46875 126.808594 475.367188 C 127.144531 469.039062 128.972656 459.871094 130.769531 450.71875 L 130.785156 450.644531 C 130.902344 450.078125 130.539062 449.511719 129.972656 449.398438 C 129.40625 449.296875 128.839844 449.660156 128.738281 450.222656 L 128.710938 450.3125 C 126.882812 459.539062 125.054688 468.75 124.707031 475.25 C 124.53125 478.570312 124.75 481.183594 125.15625 483.285156 C 125.589844 485.40625 126.246094 487.042969 126.941406 488.378906 C 129.03125 492.351562 135.71875 499.359375 138.71875 501.855469 C 140.851562 503.640625 143.320312 505.410156 145.929688 506.800781 C 149.238281 508.558594 152.820312 509.734375 156.476562 510.226562 C 160.0625 510.734375 163.71875 510.589844 167.300781 509.761719 C 170.914062 508.90625 174.453125 507.355469 178.050781 505.089844 C 181.589844 502.855469 185.203125 499.925781 188.976562 496.34375 C 192.980469 492.542969 197.230469 487.957031 201.304688 482.734375 C 204.875 478.164062 208.328125 473.101562 211.433594 467.605469 C 214.492188 462.179688 217.207031 456.304688 219.601562 450.324219 C 220.28125 448.613281 220.933594 446.886719 221.574219 445.148438 Z M 247.453125 341.828125 C 243.753906 336.300781 240.300781 331.382812 238.039062 328.464844 C 236.035156 325.882812 235.574219 324.941406 235.5 324.953125 C 235.398438 325.027344 235.585938 325.476562 235.585938 326.085938 L 235.585938 326.304688 C 235.585938 327.871094 235.5 329.554688 235.3125 333.484375 C 234.761719 345.4375 234.253906 357.390625 233.757812 369.347656 C 233.601562 373.105469 233.527344 375.222656 233.570312 376.601562 C 233.613281 377.847656 233.773438 378.472656 234.0625 379.296875 L 234.511719 380.445312 C 235.269531 382.332031 236.285156 384.871094 236.746094 388.207031 C 237.050781 390.265625 237.140625 392.644531 236.820312 395.734375 C 236.515625 398.78125 235.820312 402.511719 234.558594 407.328125 C 232.25 416.046875 228.027344 428.449219 225.445312 435.976562 L 224.777344 437.953125 C 223.980469 440.285156 223.457031 441.882812 223.226562 442.796875 C 223.34375 442.839844 223.488281 442.839844 223.660156 442.824219 C 223.820312 442.535156 224.039062 442.230469 224.328125 442.058594 C 226.316406 440.792969 229.480469 438.675781 232.539062 436.484375 C 234.933594 434.773438 237.253906 433.035156 238.878906 431.65625 C 240.605469 430.203125 241.492188 429.203125 241.855469 428.390625 C 242.144531 427.753906 242.042969 427.15625 241.796875 426.445312 C 241.257812 424.835938 240.070312 422.703125 238.980469 420.730469 L 238.5625 419.992188 C 237.863281 418.699219 237.226562 417.496094 237.574219 415.667969 C 237.910156 414.015625 239.125 411.941406 242.042969 408.921875 C 244.84375 406.019531 249.269531 402.175781 253.75 398.460938 C 258.160156 394.820312 262.757812 391.195312 265.878906 388.742188 L 266.167969 388.523438 C 271.433594 384.390625 271.683594 384.203125 270.261719 381.011719 C 269.246094 378.734375 267.53125 375.191406 265.023438 370.550781 C 263.152344 367.070312 260.859375 363.035156 258.132812 358.539062 C 254.953125 353.285156 251.09375 347.28125 247.453125 341.824219 Z M 59.148438 352.632812 C 60.421875 354.707031 65.226562 357.117188 67.632812 358.335938 L 67.691406 358.363281 C 69.097656 359.074219 69.128906 359.015625 71.695312 352.167969 L 77.730469 336.097656 C 79.996094 329.972656 82.257812 323.777344 83.75 319.46875 C 84.710938 316.714844 85.363281 314.699219 85.8125 313.21875 L 83.242188 316.875 C 80.515625 320.789062 76.496094 326.476562 72.855469 331.570312 C 70.085938 335.429688 67.316406 339.242188 65.007812 342.320312 L 63.0625 344.902344 C 59.554688 349.53125 58.277344 351.242188 59.148438 352.632812 Z M 66.648438 360.191406 C 64.050781 358.886719 58.945312 356.304688 57.363281 353.75 C 55.738281 351.125 57.246094 349.09375 61.394531 343.640625 L 63.339844 341.058594 C 65.472656 338.199219 68.273438 334.339844 71.128906 330.351562 C 75.222656 324.636719 79.082031 319.179688 81.53125 315.683594 L 83.476562 312.871094 C 85.363281 310.15625 86.160156 309.039062 86.625 308.605469 L 86.742188 308.503906 C 87.480469 307.964844 87.957031 308.125 88.378906 308.664062 L 88.421875 308.707031 C 88.683594 309.054688 88.859375 309.78125 88.410156 311.664062 C 88.046875 313.1875 87.261719 315.769531 85.738281 320.167969 C 84.203125 324.578125 81.9375 330.757812 79.691406 336.820312 L 73.667969 352.925781 C 70.273438 361.976562 70.246094 362.003906 66.75 360.25 Z M 146.917969 504.945312 C 150.007812 506.585938 153.359375 507.671875 156.769531 508.152344 C 160.089844 508.617188 163.5 508.484375 166.820312 507.703125 C 167.589844 507.527344 168.359375 507.308594 169.113281 507.0625 L 161.148438 481.445312 C 159.351562 482.953125 157.625 484.316406 156.042969 485.492188 C 153.632812 487.277344 151.558594 488.625 149.628906 489.640625 C 147.6875 490.671875 145.859375 491.382812 143.972656 491.902344 C 142.304688 492.351562 140.578125 492.671875 138.980469 492.859375 C 136.949219 493.109375 135.066406 493.179688 133.65625 493.164062 C 132.875 493.136719 133.003906 493.222656 133.382812 493.671875 C 134.671875 495.183594 137.050781 497.75 140.054688 500.246094 C 142.085938 501.941406 144.4375 503.625 146.917969 504.945312 Z M 191.6875 490.671875 C 192.558594 489.757812 193.429688 488.8125 194.296875 487.839844 L 186.21875 457.753906 L 215.523438 454.632812 C 216.089844 453.328125 216.640625 452.023438 217.175781 450.703125 L 208.851562 426.898438 L 224.835938 428.128906 C 225.15625 426.984375 225.476562 425.851562 225.78125 424.71875 L 217.757812 399.695312 L 229.234375 394.71875 C 228.667969 391.714844 227.636719 389.207031 226.402344 387.074219 C 224.867188 384.417969 222.964844 382.300781 221.167969 380.503906 C 219.339844 378.6875 217.597656 377.164062 216.03125 375.917969 C 214.464844 374.671875 213.058594 373.667969 211.882812 372.886719 L 211.808594 372.828125 C 210.867188 372.191406 210.097656 371.695312 209.546875 371.433594 C 209.617188 371.972656 209.808594 372.84375 210.070312 373.988281 C 210.359375 375.28125 210.722656 376.90625 211.085938 378.90625 C 211.59375 381.632812 212.097656 385.085938 212.417969 388.714844 C 212.679688 391.660156 212.839844 394.707031 212.78125 397.5625 C 212.707031 400.796875 212.375 403.816406 211.796875 406.746094 C 211.230469 409.664062 210.429688 412.492188 209.429688 415.347656 C 208.429688 418.207031 207.238281 421.078125 205.847656 424.011719 C 204.453125 426.925781 202.828125 429.941406 200.988281 433.105469 C 199.171875 436.226562 197.128906 439.488281 194.953125 442.769531 C 192.761719 446.074219 190.394531 449.425781 187.988281 452.691406 C 185.578125 455.925781 183.144531 459.058594 180.617188 462.046875 C 178.09375 465.066406 175.4375 467.996094 172.625 470.867188 C 169.941406 473.609375 167.097656 476.28125 164.339844 478.703125 C 163.324219 479.617188 162.308594 480.488281 161.308594 481.3125 Z M 167.691406 213.363281 C 167.589844 212.785156 167.96875 212.234375 168.535156 212.132812 C 169.097656 212.03125 169.664062 212.390625 169.765625 212.972656 C 169.984375 214.164062 170.214844 215.367188 170.519531 216.382812 L 170.535156 216.441406 C 170.824219 217.367188 171.1875 218.179688 171.710938 218.730469 C 172.667969 219.777344 174.378906 220.167969 175.800781 220.488281 C 177.46875 220.878906 178.980469 221.359375 180.605469 221.867188 L 181.824219 222.15625 C 182.417969 222.285156 183.242188 222.460938 184.171875 222.5625 L 184.203125 222.5625 C 185.101562 222.664062 186.101562 222.707031 187.074219 222.589844 C 189.074219 222.34375 191.121094 221.402344 193.167969 220.457031 L 193.195312 220.429688 C 193.734375 220.199219 194.355469 220.429688 194.589844 220.953125 C 194.835938 221.472656 194.601562 222.097656 194.082031 222.34375 L 194.039062 222.359375 C 191.847656 223.375 189.640625 224.40625 187.335938 224.679688 C 186.175781 224.824219 185 224.765625 183.953125 224.652344 L 183.925781 224.652344 C 182.910156 224.535156 182.011719 224.347656 181.386719 224.214844 L 180.066406 223.898438 C 178.457031 223.402344 176.992188 222.925781 175.335938 222.546875 C 173.625 222.15625 171.566406 221.691406 170.160156 220.152344 C 169.417969 219.339844 168.910156 218.269531 168.535156 217.0625 L 168.519531 217.003906 C 168.15625 215.84375 167.925781 214.597656 167.691406 213.363281 Z M 182.199219 189.601562 C 182.722656 189.339844 183.34375 189.542969 183.605469 190.066406 C 183.867188 190.589844 183.664062 191.210938 183.140625 191.472656 C 179.71875 193.183594 176.296875 194.898438 174.886719 196.332031 C 174.421875 196.8125 174.234375 197.21875 174.335938 197.550781 C 174.496094 198.042969 175.078125 198.625 176.09375 199.308594 L 176.164062 199.351562 C 177.367188 200.148438 179.109375 201.035156 181.023438 201.789062 L 181.082031 201.816406 C 182.808594 202.484375 184.664062 203.0625 186.390625 203.367188 C 188.25 203.6875 189.945312 203.730469 191.222656 203.425781 C 192.210938 203.195312 192.921875 202.773438 193.152344 202.148438 L 193.183594 202.09375 C 193.542969 201.078125 193.023438 199.25 192.414062 197.042969 C 192.050781 195.796875 191.671875 194.433594 191.382812 193.023438 C 190.960938 190.894531 190.746094 188.558594 190.644531 186.351562 C 190.542969 184.203125 190.554688 182.144531 190.570312 180.503906 L 190.65625 176.648438 L 190.757812 174.035156 C 190.789062 173.453125 191.28125 173.003906 191.863281 173.035156 C 192.441406 173.046875 192.890625 173.554688 192.863281 174.121094 L 192.746094 176.71875 L 192.675781 180.535156 C 192.660156 182.117188 192.644531 184.132812 192.746094 186.265625 C 192.847656 188.355469 193.050781 190.574219 193.457031 192.617188 C 193.734375 194.011719 194.097656 195.304688 194.429688 196.476562 C 195.15625 199.046875 195.75 201.179688 195.140625 202.832031 L 195.109375 202.917969 C 194.589844 204.238281 193.355469 205.082031 191.703125 205.472656 C 190.148438 205.835938 188.148438 205.804688 186.03125 205.445312 C 184.15625 205.109375 182.15625 204.484375 180.3125 203.761719 L 180.242188 203.746094 C 178.210938 202.949219 176.339844 201.976562 174.988281 201.089844 L 174.917969 201.046875 C 173.507812 200.089844 172.640625 199.160156 172.335938 198.160156 C 171.984375 197.027344 172.335938 195.941406 173.378906 194.867188 C 175.019531 193.183594 178.617188 191.386719 182.199219 189.601562 Z M 224.082031 171.292969 C 223.050781 169.464844 220.6875 167.261719 218.078125 165.679688 C 217.597656 165.390625 217.105469 165.128906 216.609375 164.867188 C 216.871094 165.289062 217.089844 165.722656 217.265625 166.1875 C 218.003906 168.261719 217.726562 170.828125 217.089844 173.425781 C 216.523438 175.703125 215.699219 178.011719 214.695312 179.445312 C 216.464844 179.300781 218.234375 178.925781 219.65625 178.460938 C 221.746094 177.777344 223.125 176.894531 223.964844 175.734375 C 224.792969 174.570312 225.097656 173.121094 224.082031 171.292969 Z M 210.316406 162.90625 L 209.9375 162.863281 C 207.28125 162.574219 204.800781 162.953125 203.425781 163.910156 C 202.058594 164.851562 201.785156 166.390625 201.394531 167.566406 C 200.988281 168.738281 200.464844 169.582031 201.101562 171.191406 C 201.753906 172.789062 203.582031 175.152344 205.585938 176.761719 C 207.371094 178.214844 209.269531 179.054688 211.445312 179.359375 C 209.632812 179.070312 207.992188 178.386719 206.46875 177.300781 L 206.355469 176.9375 C 205.703125 174.617188 206.078125 171.03125 206.5 168.464844 C 206.921875 165.898438 207.382812 164.359375 208.457031 163.269531 C 208.632812 163.109375 208.804688 162.953125 209.007812 162.804688 C 209.386719 162.820312 209.765625 162.851562 210.15625 162.894531 Z M 158.074219 152.230469 C 160.074219 151.519531 163.890625 151.375 167.722656 152.246094 C 168.78125 152.492188 169.855469 152.8125 170.882812 153.203125 C 169.347656 153.535156 167.488281 154.1875 166.152344 155.234375 C 164.3125 156.671875 163.515625 158.847656 163.355469 161.285156 C 163.210938 163.71875 163.703125 166.433594 164.660156 168.128906 L 164.746094 168.289062 C 162.859375 167.476562 161.019531 166.289062 159.699219 164.722656 C 157.523438 162.226562 156.609375 158.847656 156.246094 156.523438 C 155.882812 154.1875 156.070312 152.941406 158.074219 152.230469 Z M 174.859375 155.015625 C 175.992188 155.640625 177.019531 156.320312 177.917969 157.03125 C 180.457031 159.035156 181.675781 161.125 181.167969 163.15625 C 180.648438 165.171875 178.398438 167.101562 176.035156 168.304688 C 174.277344 169.203125 172.4375 169.683594 170.390625 169.640625 C 171.332031 169.074219 172.21875 168.175781 172.886719 166.925781 C 173.988281 164.867188 174.523438 161.863281 174.773438 159.527344 C 174.976562 157.554688 174.988281 156.074219 174.859375 155.015625 Z M 223.109375 166.867188 C 224.316406 168 225.300781 169.175781 225.910156 170.277344 C 226.636719 171.570312 226.898438 172.789062 226.808594 173.917969 C 226.738281 175.066406 226.300781 176.082031 225.664062 176.964844 C 225.082031 177.761719 224.34375 178.460938 223.402344 179.054688 C 222.542969 179.589844 221.515625 180.070312 220.3125 180.460938 C 219.09375 180.855469 217.640625 181.203125 216.132812 181.40625 C 214.785156 181.578125 213.390625 181.652344 212.085938 181.550781 C 210.632812 181.433594 209.257812 181.113281 207.949219 180.59375 C 206.644531 180.070312 205.425781 179.332031 204.265625 178.402344 C 203.164062 177.515625 202.117188 176.429688 201.261719 175.355469 C 200.320312 174.179688 199.566406 172.976562 199.160156 171.976562 C 198.304688 169.855469 198.738281 168.683594 199.230469 167.347656 L 199.566406 166.390625 C 200 164.984375 200.492188 163.386719 202.234375 162.183594 C 203.175781 161.53125 204.425781 161.082031 205.847656 160.847656 C 207.152344 160.644531 208.648438 160.617188 210.167969 160.777344 C 211.648438 160.933594 213.214844 161.285156 214.769531 161.820312 C 216.203125 162.3125 217.640625 162.980469 219.003906 163.792969 L 219.164062 163.878906 C 220.570312 164.722656 221.933594 165.78125 223.109375 166.867188 Z M 157.378906 150.257812 C 158.640625 149.808594 160.4375 149.546875 162.46875 149.546875 C 164.238281 149.546875 166.226562 149.75 168.183594 150.199219 C 170.1875 150.664062 172.1875 151.375 174.046875 152.246094 C 175.992188 153.160156 177.789062 154.261719 179.226562 155.378906 C 180.75 156.570312 181.878906 157.84375 182.578125 159.164062 C 183.359375 160.628906 183.59375 162.140625 183.199219 163.664062 L 183.140625 163.867188 C 182.78125 165.128906 181.980469 166.316406 180.953125 167.363281 C 179.847656 168.464844 178.425781 169.449219 176.992188 170.191406 C 175.613281 170.886719 174.191406 171.367188 172.683594 171.597656 C 171.175781 171.832031 169.578125 171.785156 167.851562 171.453125 C 166.097656 171.121094 164.195312 170.453125 162.425781 169.496094 C 160.816406 168.609375 159.308594 167.476562 158.117188 166.113281 L 158.058594 166.042969 C 156.984375 164.792969 156.1875 163.371094 155.59375 161.980469 L 155.535156 161.792969 C 154.808594 160.019531 154.402344 158.238281 154.171875 156.84375 C 153.9375 155.363281 153.910156 154.144531 154.300781 153.058594 C 154.78125 151.738281 155.722656 150.839844 157.378906 150.257812 Z M 223.371094 7.984375 C 215.292969 5.941406 206.3125 4.285156 197.199219 3.457031 C 189.207031 2.734375 181.066406 2.632812 173.304688 3.445312 C 165.023438 4.316406 157.128906 6.214844 149.515625 9.03125 C 141.882812 11.859375 134.5 15.601562 127.203125 20.128906 C 120.09375 24.550781 113.085938 29.71875 106.660156 35.097656 C 99.871094 40.785156 93.746094 46.703125 88.886719 52.230469 C 82.503906 59.484375 78.296875 66.027344 75.105469 71.019531 C 73.523438 73.472656 72.1875 75.546875 70.957031 77.171875 C 68.96875 79.765625 67.214844 81.1875 64.992188 82.117188 C 62.832031 83.015625 60.320312 83.394531 56.695312 83.902344 C 52.589844 84.46875 47.019531 85.222656 41.882812 85.859375 C 38.097656 86.324219 34.5 86.730469 31.871094 86.949219 L 28.738281 87.179688 C 27.15625 87.28125 26.242188 87.339844 25.984375 87.46875 C 25.691406 87.628906 26.390625 87.367188 26.476562 87.558594 C 26.910156 88.371094 27.652344 89.558594 28.535156 90.980469 C 29.945312 93.214844 31.683594 96 33.105469 98.742188 C 33.933594 100.351562 34.660156 101.933594 35.3125 103.371094 C 36.515625 106.023438 37.53125 108.246094 38.503906 109.101562 L 38.53125 109.128906 C 39.011719 109.519531 39.605469 109.476562 40.519531 108.984375 C 41.8125 108.304688 43.636719 106.835938 46.292969 104.660156 L 47.484375 103.691406 C 52.953125 99.207031 60.859375 92.738281 63.949219 91.269531 L 64.023438 91.242188 C 65.441406 90.574219 66.3125 90.75 66.777344 91.707031 C 67.316406 92.839844 66.34375 95.21875 64.832031 98.929688 L 62.933594 103.644531 C 61.613281 107.097656 60.117188 111.347656 58.683594 115.601562 C 56.753906 121.332031 54.925781 127.074219 53.75 130.933594 C 52.765625 134.140625 52.226562 136.011719 52.3125 137.042969 C 52.371094 137.679688 52.910156 137.96875 54.027344 138.289062 C 56.476562 139 61.0625 139.625 65.210938 140.175781 L 71.40625 141.058594 C 74.511719 141.539062 76.714844 141.871094 78.425781 141.757812 C 79.285156 141.699219 79.996094 141.523438 80.414062 140.769531 C 80.964844 139.738281 81.199219 137.78125 80.953125 134.199219 C 80.734375 131.09375 80.152344 126.886719 79.441406 122.5625 C 78.425781 116.28125 77.136719 109.710938 76.324219 105.851562 L 75.773438 103.238281 C 75.234375 100.757812 75.0625 99.65625 76.773438 100.191406 C 77.09375 100.308594 77.324219 100.542969 77.441406 100.832031 C 77.613281 101.136719 77.773438 101.527344 77.992188 102.019531 L 79.53125 105.574219 C 80.910156 108.609375 83.011719 112.917969 85.128906 116.992188 C 86.988281 120.574219 88.84375 123.984375 90.207031 126.191406 C 92.558594 129.992188 93.179688 129.597656 95.648438 128.019531 L 96.546875 127.453125 C 99.882812 125.335938 105.019531 122.085938 106.238281 120.023438 C 106.832031 119.039062 105.789062 118.09375 103.628906 116.164062 C 102.582031 115.238281 101.304688 114.105469 99.839844 112.613281 C 97.738281 110.480469 95.300781 107.664062 92.921875 104.777344 C 89.65625 100.800781 86.492188 96.683594 84.507812 93.984375 C 82.402344 91.125 81.402344 89.5 82.722656 88.484375 C 83.636719 87.789062 85.882812 88.152344 90.25 89.226562 L 94.023438 90.167969 C 102.726562 92.359375 116.507812 95.828125 129.582031 97.277344 L 129.609375 97.277344 C 134.714844 97.828125 139.75 98.089844 145.003906 98.351562 C 155.347656 98.875 166.53125 99.425781 181.023438 102.472656 C 191.660156 104.703125 204.078125 108.273438 215.972656 112.308594 C 228.535156 116.558594 240.578125 121.359375 249.382812 125.640625 C 261.089844 131.324219 267.113281 136.140625 271.480469 139.636719 C 273.480469 141.234375 275.132812 142.539062 276.773438 143.496094 C 279.964844 145.339844 283.417969 146.007812 286.929688 146.6875 L 286.957031 146.6875 C 289.179688 147.109375 291.441406 147.546875 293.703125 148.285156 C 296.519531 149.199219 299.320312 150.5625 301.726562 152.027344 C 304.554688 153.726562 306.921875 155.609375 308.269531 157.121094 C 309.765625 158.800781 310.171875 160.109375 309.359375 162.007812 C 308.691406 163.589844 307.078125 165.503906 304.425781 168.625 L 302.667969 170.683594 C 297.375 176.921875 289.539062 186.105469 285.738281 191.34375 C 283.78125 194.039062 282.953125 195.550781 283.054688 196.476562 C 283.144531 197.230469 284.128906 197.871094 285.78125 198.8125 C 287.945312 200.03125 291.078125 201.671875 294.082031 203.050781 C 296.417969 204.125 298.679688 205.039062 300.320312 205.488281 C 301.84375 205.90625 302.699219 205.894531 303.277344 205.269531 C 304.035156 204.441406 304.644531 202.65625 305.511719 199.726562 C 306.414062 196.695312 307.601562 192.402344 308.734375 188.179688 L 311.679688 177.125 C 316.089844 160.398438 316.089844 160.398438 314.582031 179.839844 L 313.332031 195.636719 C 312.855469 201.484375 312.347656 207.519531 311.910156 212 L 311.765625 213.496094 C 311.519531 215.976562 311.34375 217.773438 311.390625 218.980469 C 311.476562 220.53125 312.171875 220.863281 314.320312 220.761719 C 316.453125 220.660156 319.671875 220.199219 323.054688 219.601562 C 327.144531 218.878906 331.421875 217.949219 334.296875 217.207031 C 336.617188 216.613281 337.894531 216.191406 338.167969 215.425781 C 338.503906 214.511719 337.9375 212.785156 336.558594 209.578125 C 333.585938 202.644531 327.085938 189.644531 323.820312 183.101562 L 323.792969 183.042969 C 314.957031 165.390625 314.957031 165.390625 325.648438 179.96875 L 332.382812 189.222656 C 334.921875 192.765625 337.488281 196.40625 339.242188 199.074219 L 340.246094 200.628906 C 342.40625 203.992188 342.941406 204.804688 345.742188 203.09375 C 347.976562 201.730469 351.371094 199.132812 354.289062 196.433594 C 356.578125 194.316406 358.550781 192.15625 359.363281 190.558594 C 360.527344 188.28125 358.507812 187.046875 354.230469 184.421875 C 353.097656 183.726562 351.808594 182.941406 350.355469 182.015625 C 346.875 179.75 342.679688 176.734375 338.648438 173.671875 C 333.992188 170.148438 329.480469 166.535156 326.476562 163.953125 C 323.574219 161.441406 322.023438 159.847656 321.136719 157.757812 C 320.253906 155.699219 320.0625 153.304688 319.859375 149.183594 L 319.804688 147.804688 C 319.425781 139.59375 318.789062 125.625 314.566406 110.40625 C 312.433594 102.644531 309.34375 94.550781 305.6875 86.585938 C 301.726562 77.984375 297.097656 69.511719 292.222656 61.777344 C 287.464844 54.21875 282.460938 47.3125 277.222656 41.222656 C 272.175781 35.316406 266.910156 30.152344 261.453125 25.859375 C 255.925781 21.492188 250.183594 17.980469 243.945312 15.09375 C 237.707031 12.207031 230.929688 9.914062 223.371094 7.984375 Z M 141.8125 16.574219 C 133.425781 20.15625 124.589844 24.726562 114.535156 32.71875 C 104.484375 40.726562 93.210938 52.160156 86.421875 60.386719 C 79.644531 68.609375 77.355469 73.644531 77.355469 76.605469 C 77.355469 79.578125 79.644531 80.492188 88.929688 83.234375 C 98.230469 85.976562 114.535156 90.546875 123.371094 92.230469 C 132.207031 93.898438 133.585938 92.679688 141.882812 87.964844 C 150.195312 83.234375 165.429688 75.007812 178.761719 70.671875 C 192.09375 66.320312 203.527344 65.867188 216.625 69.148438 C 229.726562 72.425781 244.507812 79.433594 255.40625 87.890625 C 266.300781 96.347656 273.304688 106.242188 278.253906 115.613281 C 283.214844 124.984375 286.101562 133.820312 287.554688 138.78125 C 289.003906 143.730469 289.003906 144.789062 293.414062 147.226562 C 297.839844 149.664062 306.675781 153.476562 311.925781 154.160156 C 317.191406 154.855469 318.859375 152.417969 317.945312 143.121094 C 317.03125 133.820312 313.535156 117.675781 308.429688 102.964844 C 303.324219 88.269531 296.621094 75.007812 288.164062 62.589844 C 279.703125 50.171875 269.492188 38.59375 257.378906 29.976562 C 245.277344 21.375 231.25 15.730469 215.710938 12.539062 C 200.160156 9.335938 183.097656 8.578125 170.609375 9.492188 C 158.117188 10.40625 150.195312 12.988281 141.8125 16.574219 Z M 292.820312 95.375 C 291.628906 94.925781 290.511719 94.824219 289.511719 94.96875 C 288.4375 95.117188 287.496094 95.578125 286.8125 96.203125 C 286.1875 96.769531 285.738281 97.480469 285.464844 98.292969 L 285.421875 98.378906 C 285.128906 99.25 285.015625 100.25 285.058594 101.238281 C 285.117188 102.238281 285.332031 103.238281 285.710938 104.210938 C 286.085938 105.183594 286.625 106.140625 287.320312 107.054688 C 288.074219 108.027344 288.976562 108.914062 289.992188 109.636719 C 290.890625 110.277344 291.890625 110.785156 292.921875 111.058594 C 294.023438 111.347656 295.183594 111.378906 296.226562 111.101562 C 297.140625 110.871094 297.984375 110.378906 298.636719 109.609375 C 299.375 108.722656 299.898438 107.476562 300.074219 106.082031 C 300.246094 104.777344 300.101562 103.339844 299.566406 101.976562 C 299.015625 100.570312 298.027344 99.222656 296.882812 98.089844 C 295.632812 96.871094 294.183594 95.898438 292.820312 95.375 Z M 141.40625 39.742188 C 140.171875 39.945312 138.632812 40.21875 137.082031 40.699219 L 137.007812 40.726562 C 135.542969 41.191406 134.0625 41.875 132.84375 42.902344 C 131.671875 43.890625 130.710938 45.253906 130 46.761719 C 129.21875 48.417969 128.738281 50.289062 128.566406 52.101562 C 128.421875 53.828125 128.550781 55.554688 128.957031 57.148438 L 128.972656 57.207031 C 129.378906 58.761719 130.046875 60.210938 130.960938 61.472656 C 131.929688 62.792969 133.164062 63.925781 134.628906 64.707031 C 135.949219 65.417969 137.503906 65.855469 139.199219 65.882812 C 141.085938 65.914062 143.1875 65.476562 145.160156 64.578125 C 146.976562 63.75 148.703125 62.53125 150.035156 60.964844 C 151.429688 59.328125 152.429688 57.265625 152.96875 55.148438 C 153.503906 53.015625 153.5625 50.8125 153.097656 48.851562 C 152.691406 47.183594 151.878906 45.675781 150.90625 44.382812 C 149.617188 42.671875 148.0625 41.351562 146.832031 40.539062 L 146.773438 40.496094 C 145.800781 39.871094 145.046875 39.582031 144.304688 39.496094 C 143.492188 39.421875 142.59375 39.554688 141.40625 39.742188 Z M 136.441406 38.695312 C 138.109375 38.175781 139.75 37.882812 141.070312 37.667969 C 142.433594 37.449219 143.464844 37.304688 144.523438 37.40625 C 145.597656 37.523438 146.640625 37.914062 147.933594 38.742188 L 147.992188 38.785156 C 149.382812 39.699219 151.152344 41.191406 152.589844 43.121094 C 153.707031 44.617188 154.648438 46.386719 155.128906 48.375 C 155.695312 50.652344 155.621094 53.21875 154.996094 55.65625 C 154.402344 58.078125 153.242188 60.429688 151.632812 62.316406 C 150.09375 64.144531 148.105469 65.550781 146.019531 66.492188 C 143.769531 67.523438 141.347656 68.03125 139.15625 67.988281 C 137.109375 67.945312 135.253906 67.421875 133.628906 66.566406 C 131.875 65.621094 130.40625 64.273438 129.261719 62.707031 C 128.203125 61.242188 127.40625 59.558594 126.941406 57.746094 L 126.910156 57.671875 C 126.449219 55.859375 126.300781 53.902344 126.476562 51.914062 C 126.664062 49.851562 127.214844 47.75 128.101562 45.878906 C 128.929688 44.09375 130.074219 42.496094 131.496094 41.292969 C 132.945312 40.074219 134.671875 39.261719 136.371094 38.726562 Z M 289.222656 92.882812 C 290.542969 92.691406 292.019531 92.824219 293.558594 93.417969 C 295.183594 94.027344 296.882812 95.160156 298.332031 96.582031 C 299.695312 97.914062 300.855469 99.527344 301.523438 101.222656 C 302.191406 102.921875 302.363281 104.703125 302.160156 106.359375 C 301.929688 108.144531 301.234375 109.78125 300.246094 110.957031 C 299.289062 112.074219 298.070312 112.785156 296.75 113.148438 C 295.359375 113.511719 293.835938 113.46875 292.382812 113.089844 C 291.105469 112.742188 289.875 112.132812 288.773438 111.347656 C 287.582031 110.507812 286.523438 109.464844 285.679688 108.359375 L 285.652344 108.332031 C 284.839844 107.273438 284.203125 106.140625 283.753906 104.980469 C 283.289062 103.777344 283.027344 102.558594 282.96875 101.339844 C 282.894531 100.089844 283.042969 98.828125 283.449219 97.683594 L 283.476562 97.582031 C 283.867188 96.480469 284.507812 95.464844 285.40625 94.652344 C 286.40625 93.753906 287.710938 93.097656 289.222656 92.882812 Z M 217.597656 35.460938 C 218.730469 34.925781 220.007812 33.691406 222.515625 31.253906 C 225.027344 28.816406 228.78125 25.175781 230.902344 24.640625 C 233.003906 24.117188 233.453125 26.714844 233.902344 29.71875 C 234.355469 32.71875 234.789062 36.160156 235.09375 38.550781 C 235.398438 40.960938 235.574219 42.324219 236.109375 43.398438 C 236.644531 44.472656 237.53125 45.226562 240.476562 46.980469 C 243.40625 48.734375 248.382812 51.476562 249.890625 53 C 251.398438 54.539062 249.441406 54.871094 246.4375 55.175781 C 243.421875 55.480469 239.359375 55.757812 237.445312 58.152344 C 235.515625 60.53125 235.746094 65.027344 235.789062 67.4375 C 235.820312 69.828125 235.675781 70.132812 233.078125 66.898438 C 230.496094 63.664062 225.460938 56.875 222.980469 54.132812 C 220.515625 51.390625 220.585938 52.683594 216.859375 54.292969 C 213.113281 55.886719 205.585938 57.789062 202.335938 58.253906 C 199.101562 58.703125 200.175781 57.714844 202.191406 55.886719 C 204.207031 54.058594 207.179688 51.390625 208.546875 49.867188 C 209.921875 48.34375 209.691406 47.96875 207.558594 46.023438 C 205.425781 44.078125 201.394531 40.570312 199.261719 38.175781 C 197.113281 35.765625 196.894531 34.476562 199.753906 34.257812 C 202.613281 34.027344 208.546875 34.882812 212.011719 35.375 C 215.480469 35.867188 216.464844 36.011719 217.597656 35.460938 Z M 197.390625 1.371094 C 206.660156 2.210938 215.742188 3.878906 223.894531 5.953125 C 231.570312 7.898438 238.445312 10.234375 244.8125 13.191406 C 251.210938 16.152344 257.085938 19.734375 262.746094 24.203125 C 268.332031 28.601562 273.683594 33.851562 278.820312 39.84375 C 284.101562 46.007812 289.179688 52.988281 293.996094 60.660156 C 298.914062 68.480469 303.597656 77.023438 307.585938 85.699219 C 311.300781 93.78125 314.421875 101.976562 316.597656 109.839844 C 320.875 125.304688 321.53125 139.421875 321.90625 147.703125 L 321.964844 149.082031 C 322.152344 152.957031 322.3125 155.175781 323.066406 156.929688 C 323.808594 158.644531 325.199219 160.066406 327.855469 162.355469 C 330.800781 164.894531 335.269531 168.480469 339.910156 171.988281 C 343.957031 175.050781 348.121094 178.054688 351.5 180.246094 C 352.878906 181.144531 354.171875 181.941406 355.316406 182.636719 C 360.730469 185.945312 363.28125 187.496094 361.238281 191.515625 C 360.308594 193.359375 358.160156 195.710938 355.710938 197.972656 C 352.707031 200.757812 349.167969 203.457031 346.832031 204.878906 C 342.289062 207.664062 341.535156 206.515625 338.488281 201.757812 L 337.488281 200.222656 C 335.730469 197.550781 333.195312 193.9375 330.667969 190.441406 L 327.941406 186.671875 C 331.410156 193.632812 336.125 203.210938 338.488281 208.75 C 340.085938 212.480469 340.707031 214.597656 340.140625 216.136719 C 339.53125 217.816406 337.835938 218.472656 334.816406 219.253906 C 331.875 220.007812 327.519531 220.953125 323.402344 221.675781 C 319.960938 222.285156 316.640625 222.75 314.421875 222.867188 C 310.691406 223.039062 309.445312 222.328125 309.300781 219.082031 C 309.226562 217.746094 309.414062 215.875 309.675781 213.292969 L 309.820312 211.8125 C 310.214844 207.691406 310.734375 201.570312 311.230469 195.460938 L 312.1875 183.40625 L 310.765625 188.730469 C 309.648438 192.894531 308.457031 197.1875 307.53125 200.324219 C 306.570312 203.558594 305.875 205.546875 304.832031 206.691406 C 303.597656 208.011719 302.132812 208.15625 299.769531 207.519531 C 298 207.023438 295.632812 206.066406 293.210938 204.949219 C 290.136719 203.542969 286.929688 201.875 284.738281 200.628906 C 282.519531 199.363281 281.167969 198.421875 280.964844 196.710938 C 280.792969 195.171875 281.734375 193.273438 284.027344 190.109375 C 287.859375 184.84375 295.734375 175.585938 301.074219 169.335938 L 302.828125 167.273438 C 305.339844 164.300781 306.875 162.472656 307.429688 161.183594 C 307.835938 160.222656 307.585938 159.5 306.703125 158.511719 C 305.484375 157.164062 303.308594 155.4375 300.652344 153.828125 C 298.347656 152.433594 295.707031 151.144531 293.066406 150.285156 C 290.917969 149.589844 288.726562 149.167969 286.566406 148.761719 L 286.539062 148.75 C 282.851562 148.039062 279.226562 147.34375 275.714844 145.3125 C 273.929688 144.28125 272.234375 142.917969 270.171875 141.277344 C 265.894531 137.855469 259.972656 133.125 248.46875 127.523438 C 239.734375 123.289062 227.796875 118.53125 215.292969 114.292969 C 203.46875 110.289062 191.136719 106.734375 180.605469 104.53125 C 166.285156 101.527344 155.171875 100.960938 144.902344 100.453125 C 139.632812 100.191406 134.570312 99.933594 129.378906 99.367188 L 129.347656 99.367188 C 116.132812 97.914062 102.261719 94.40625 93.515625 92.199219 L 89.742188 91.257812 C 86.042969 90.355469 84.246094 89.964844 84 90.152344 C 83.839844 90.269531 84.882812 90.964844 86.203125 92.738281 C 88.175781 95.433594 91.308594 99.527344 94.546875 103.441406 C 96.882812 106.285156 99.273438 109.042969 101.335938 111.144531 C 102.714844 112.539062 103.988281 113.671875 105.019531 114.597656 C 108.050781 117.3125 109.515625 118.617188 108.050781 121.097656 C 106.558594 123.59375 101.175781 127.003906 97.679688 129.222656 L 96.78125 129.789062 C 92.863281 132.285156 91.890625 132.894531 88.421875 127.277344 C 87 125 85.117188 121.546875 83.257812 117.949219 C 81.878906 115.296875 80.503906 112.539062 79.328125 110.101562 C 80.023438 113.671875 80.835938 118.007812 81.515625 122.230469 C 82.242188 126.640625 82.835938 130.917969 83.054688 134.054688 C 83.332031 138.070312 82.996094 140.394531 82.257812 141.757812 C 81.371094 143.394531 80.066406 143.757812 78.558594 143.859375 C 76.613281 143.976562 74.320312 143.640625 71.101562 143.148438 L 64.933594 142.265625 C 60.714844 141.699219 56.042969 141.058594 53.445312 140.320312 C 51.371094 139.726562 50.371094 139.015625 50.226562 137.214844 C 50.09375 135.824219 50.675781 133.792969 51.75 130.308594 C 52.921875 126.453125 54.75 120.707031 56.695312 114.933594 C 58.117188 110.726562 59.609375 106.460938 60.988281 102.890625 L 62.875 98.148438 C 63.832031 95.796875 64.527344 94.070312 64.789062 93.199219 C 61.875 94.621094 54.171875 100.933594 48.816406 105.3125 L 47.613281 106.300781 C 44.871094 108.535156 42.984375 110.058594 41.503906 110.839844 C 39.707031 111.8125 38.429688 111.785156 37.183594 110.738281 L 37.125 110.695312 C 35.804688 109.535156 34.703125 107.113281 33.394531 104.242188 C 32.742188 102.804688 32.03125 101.238281 31.234375 99.714844 C 29.828125 96.957031 28.117188 94.246094 26.765625 92.082031 C 25.824219 90.589844 25.039062 89.328125 24.617188 88.515625 C 23.851562 87.035156 23.792969 86.238281 25.011719 85.597656 C 25.679688 85.265625 26.75 85.191406 28.609375 85.078125 L 31.714844 84.84375 C 34.355469 84.628906 37.894531 84.222656 41.636719 83.769531 C 46.800781 83.132812 52.34375 82.378906 56.40625 81.8125 C 59.871094 81.320312 62.28125 80.972656 64.179688 80.171875 C 66.039062 79.40625 67.53125 78.171875 69.273438 75.894531 C 70.476562 74.328125 71.78125 72.28125 73.335938 69.886719 C 76.570312 64.824219 80.851562 58.179688 87.304688 50.839844 C 92.222656 45.253906 98.433594 39.25 105.308594 33.488281 C 111.808594 28.046875 118.902344 22.8125 126.085938 18.34375 C 133.496094 13.746094 141.011719 9.929688 148.789062 7.058594 C 156.566406 4.183594 164.617188 2.242188 173.089844 1.355469 C 180.980469 0.527344 189.25 0.628906 197.390625 1.371094 Z M 76.121094 102.210938 C 75.453125 101.976562 75.671875 102.050781 76.121094 102.210938 Z M 76.121094 102.210938 " fill-opacity="1" fill-rule="evenodd"/></g></svg>