<svg xmlns="http://www.w3.org/2000/svg" xmlns:xlink="http://www.w3.org/1999/xlink" width="1223" zoomAndPan="magnify" viewBox="0 0 917.25 796.499975" height="1062" preserveAspectRatio="xMidYMid meet" version="1.0"><defs><clipPath id="2e2fa667f0"><path d="M 186 151 L 796 151 L 796 668 L 186 668 Z M 186 151 " clip-rule="nonzero"/></clipPath><clipPath id="6b6d65f95e"><path d="M 0 459.546875 L 687.238281 0.277344 L 903.757812 324.269531 L 216.519531 783.539062 Z M 0 459.546875 " clip-rule="nonzero"/></clipPath><clipPath id="af0bd94396"><path d="M 0 459.546875 L 687.238281 0.277344 L 903.757812 324.269531 L 216.519531 783.539062 Z M 0 459.546875 " clip-rule="nonzero"/></clipPath><clipPath id="5a99d2634b"><path d="M 0 459.546875 L 687.238281 0.277344 L 903.757812 324.269531 L 216.519531 783.539062 Z M 0 459.546875 " clip-rule="nonzero"/></clipPath><clipPath id="b055f99521"><path d="M 358 253 L 488 253 L 488 385 L 358 385 Z M 358 253 " clip-rule="nonzero"/></clipPath><clipPath id="cc0e67ddb4"><path d="M 0 459.546875 L 687.238281 0.277344 L 903.757812 324.269531 L 216.519531 783.539062 Z M 0 459.546875 " clip-rule="nonzero"/></clipPath><clipPath id="c0a065218d"><path d="M 0 459.546875 L 687.238281 0.277344 L 903.757812 324.269531 L 216.519531 783.539062 Z M 0 459.546875 " clip-rule="nonzero"/></clipPath><clipPath id="84293f9b4d"><path d="M 0 459.546875 L 687.238281 0.277344 L 903.757812 324.269531 L 216.519531 783.539062 Z M 0 459.546875 " clip-rule="nonzero"/></clipPath><clipPath id="caeb59d6ef"><path d="M 457 333 L 487 333 L 487 337 L 457 337 Z M 457 333 " clip-rule="nonzero"/></clipPath><clipPath id="9d2078ece5"><path d="M 0 459.546875 L 687.238281 0.277344 L 903.757812 324.269531 L 216.519531 783.539062 Z M 0 459.546875 " clip-rule="nonzero"/></clipPath><clipPath id="1bb6fcbbae"><path d="M 0 459.546875 L 687.238281 0.277344 L 903.757812 324.269531 L 216.519531 783.539062 Z M 0 459.546875 " clip-rule="nonzero"/></clipPath><clipPath id="a2eee5813f"><path d="M 0 459.546875 L 687.238281 0.277344 L 903.757812 324.269531 L 216.519531 783.539062 Z M 0 459.546875 " clip-rule="nonzero"/></clipPath><clipPath id="18c9f9d379"><path d="M 382 256 L 388 256 L 388 294 L 382 294 Z M 382 256 " clip-rule="nonzero"/></clipPath><clipPath id="e385fc9c09"><path d="M 0 459.546875 L 687.238281 0.277344 L 903.757812 324.269531 L 216.519531 783.539062 Z M 0 459.546875 " clip-rule="nonzero"/></clipPath><clipPath id="f5d55fb707"><path d="M 0 459.546875 L 687.238281 0.277344 L 903.757812 324.269531 L 216.519531 783.539062 Z M 0 459.546875 " clip-rule="nonzero"/></clipPath><clipPath id="efe6280803"><path d="M 0 459.546875 L 687.238281 0.277344 L 903.757812 324.269531 L 216.519531 783.539062 Z M 0 459.546875 " clip-rule="nonzero"/></clipPath><clipPath id="87814ce31f"><path d="M 570 213 L 630 213 L 630 270 L 570 270 Z M 570 213 " clip-rule="nonzero"/></clipPath><clipPath id="2bcd37d133"><path d="M 0 459.546875 L 687.238281 0.277344 L 903.757812 324.269531 L 216.519531 783.539062 Z M 0 459.546875 " clip-rule="nonzero"/></clipPath><clipPath id="4abcdcbd09"><path d="M 0 459.546875 L 687.238281 0.277344 L 903.757812 324.269531 L 216.519531 783.539062 Z M 0 459.546875 " clip-rule="nonzero"/></clipPath><clipPath id="08624bab0f"><path d="M 0 459.546875 L 687.238281 0.277344 L 903.757812 324.269531 L 216.519531 783.539062 Z M 0 459.546875 " clip-rule="nonzero"/></clipPath><clipPath id="66e78621c0"><path d="M 268 416 L 331 416 L 331 477 L 268 477 Z M 268 416 " clip-rule="nonzero"/></clipPath><clipPath id="64f517e709"><path d="M 0 459.546875 L 687.238281 0.277344 L 903.757812 324.269531 L 216.519531 783.539062 Z M 0 459.546875 " clip-rule="nonzero"/></clipPath><clipPath id="6b905cfeac"><path d="M 0 459.546875 L 687.238281 0.277344 L 903.757812 324.269531 L 216.519531 783.539062 Z M 0 459.546875 " clip-rule="nonzero"/></clipPath><clipPath id="f6c2fac1cd"><path d="M 0 459.546875 L 687.238281 0.277344 L 903.757812 324.269531 L 216.519531 783.539062 Z M 0 459.546875 " clip-rule="nonzero"/></clipPath><clipPath id="9f440d83a4"><path d="M 247 538 L 340 538 L 340 639 L 247 639 Z M 247 538 " clip-rule="nonzero"/></clipPath><clipPath id="21bdd9211b"><path d="M 0 459.546875 L 687.238281 0.277344 L 903.757812 324.269531 L 216.519531 783.539062 Z M 0 459.546875 " clip-rule="nonzero"/></clipPath><clipPath id="7a13c4ec44"><path d="M 0 459.546875 L 687.238281 0.277344 L 903.757812 324.269531 L 216.519531 783.539062 Z M 0 459.546875 " clip-rule="nonzero"/></clipPath><clipPath id="cea60dc3a7"><path d="M 0 459.546875 L 687.238281 0.277344 L 903.757812 324.269531 L 216.519531 783.539062 Z M 0 459.546875 " clip-rule="nonzero"/></clipPath><clipPath id="a5d4a227bf"><path d="M 189 624 L 226 624 L 226 752 L 189 752 Z M 189 624 " clip-rule="nonzero"/></clipPath><clipPath id="a6080d8005"><path d="M 0 459.546875 L 687.238281 0.277344 L 903.757812 324.269531 L 216.519531 783.539062 Z M 0 459.546875 " clip-rule="nonzero"/></clipPath><clipPath id="7074ebd9e4"><path d="M 0 459.546875 L 687.238281 0.277344 L 903.757812 324.269531 L 216.519531 783.539062 Z M 0 459.546875 " clip-rule="nonzero"/></clipPath><clipPath id="7ee8d35b01"><path d="M 0 459.546875 L 687.238281 0.277344 L 903.757812 324.269531 L 216.519531 783.539062 Z M 0 459.546875 " clip-rule="nonzero"/></clipPath><clipPath id="5acba3e3df"><path d="M 166 629 L 243 629 L 243 770 L 166 770 Z M 166 629 " clip-rule="nonzero"/></clipPath><clipPath id="8fb647c16c"><path d="M 0 459.546875 L 687.238281 0.277344 L 903.757812 324.269531 L 216.519531 783.539062 Z M 0 459.546875 " clip-rule="nonzero"/></clipPath><clipPath id="ea99ac81e2"><path d="M 0 459.546875 L 687.238281 0.277344 L 903.757812 324.269531 L 216.519531 783.539062 Z M 0 459.546875 " clip-rule="nonzero"/></clipPath><clipPath id="e538d1b260"><path d="M 0 459.546875 L 687.238281 0.277344 L 903.757812 324.269531 L 216.519531 783.539062 Z M 0 459.546875 " clip-rule="nonzero"/></clipPath><clipPath id="15c3d42fde"><path d="M 757 219 L 858 219 L 858 271 L 757 271 Z M 757 219 " clip-rule="nonzero"/></clipPath><clipPath id="41f3fad8ab"><path d="M 0 459.546875 L 687.238281 0.277344 L 903.757812 324.269531 L 216.519531 783.539062 Z M 0 459.546875 " clip-rule="nonzero"/></clipPath><clipPath id="803ff94ca8"><path d="M 0 459.546875 L 687.238281 0.277344 L 903.757812 324.269531 L 216.519531 783.539062 Z M 0 459.546875 " clip-rule="nonzero"/></clipPath><clipPath id="a37f8785b8"><path d="M 0 459.546875 L 687.238281 0.277344 L 903.757812 324.269531 L 216.519531 783.539062 Z M 0 459.546875 " clip-rule="nonzero"/></clipPath><clipPath id="fd702a4b21"><path d="M 763 246 L 879 246 L 879 322 L 763 322 Z M 763 246 " clip-rule="nonzero"/></clipPath><clipPath id="ee3baf44a3"><path d="M 0 459.546875 L 687.238281 0.277344 L 903.757812 324.269531 L 216.519531 783.539062 Z M 0 459.546875 " clip-rule="nonzero"/></clipPath><clipPath id="4b672f3a38"><path d="M 0 459.546875 L 687.238281 0.277344 L 903.757812 324.269531 L 216.519531 783.539062 Z M 0 459.546875 " clip-rule="nonzero"/></clipPath><clipPath id="a5636e21f5"><path d="M 0 459.546875 L 687.238281 0.277344 L 903.757812 324.269531 L 216.519531 783.539062 Z M 0 459.546875 " clip-rule="nonzero"/></clipPath></defs><g clip-path="url(#2e2fa667f0)"><g clip-path="url(#6b6d65f95e)"><g clip-path="url(#af0bd94396)"><g clip-path="url(#5a99d2634b)"><path fill="#000000" d="M 205.664062 629.210938 C 205.664062 629.210938 189.710938 521.042969 187.242188 510.273438 C 184.769531 499.507812 192.296875 454.898438 192.296875 454.898438 L 202.082031 422.125 L 248.742188 351.363281 L 277.269531 301.15625 L 331.53125 244.128906 L 389.722656 199.496094 L 457.835938 160.003906 L 516.367188 161.765625 L 584.472656 151.101562 L 637.480469 161.929688 L 677.320312 184.804688 L 730.253906 204.394531 C 730.253906 204.394531 765.921875 225.605469 775.3125 233.972656 C 784.640625 242.382812 795.867188 265.839844 795.867188 265.839844 L 762.253906 279.035156 L 712.53125 297.804688 L 681.148438 302.277344 L 632.261719 321.042969 L 610.515625 325.382812 L 562.339844 349.789062 L 495.804688 387.210938 L 442.011719 428.441406 L 384.601562 482.289062 L 342.53125 518.464844 L 286.578125 573.933594 L 249.867188 621.175781 L 218.472656 667.089844 L 207.917969 653.378906 " fill-opacity="1" fill-rule="nonzero"/></g></g></g></g><g clip-path="url(#b055f99521)"><g clip-path="url(#cc0e67ddb4)"><g clip-path="url(#c0a065218d)"><g clip-path="url(#84293f9b4d)"><path fill="#ffffff" d="M 384.902344 253.421875 L 386.917969 274.875 L 388.824219 297.144531 C 388.824219 297.144531 373.828125 316.433594 371.460938 318.296875 C 369.089844 320.15625 358.933594 331.855469 358.933594 331.855469 L 383.808594 333.308594 L 404.273438 328.992188 L 408.082031 349.804688 L 413.597656 384.679688 L 423.679688 363.019531 L 431.683594 323.839844 L 456.054688 332.578125 L 487.640625 335.753906 L 462.414062 310.066406 L 441.324219 295.703125 L 469.121094 260.351562 L 453.503906 260.964844 L 423.796875 274.050781 Z M 384.902344 253.421875 " fill-opacity="1" fill-rule="nonzero"/></g></g></g></g><g clip-path="url(#caeb59d6ef)"><g clip-path="url(#9d2078ece5)"><g clip-path="url(#1bb6fcbbae)"><g clip-path="url(#a2eee5813f)"><path fill="#ffffff" d="M 457.273438 333.710938 L 486.722656 336.460938 L 463.472656 336.054688 Z M 457.273438 333.710938 " fill-opacity="1" fill-rule="nonzero"/></g></g></g></g><g clip-path="url(#18c9f9d379)"><g clip-path="url(#e385fc9c09)"><g clip-path="url(#f5d55fb707)"><g clip-path="url(#efe6280803)"><path fill="#ffffff" d="M 383.453125 256.519531 L 387.132812 293.917969 L 382.917969 272.636719 Z M 383.453125 256.519531 " fill-opacity="1" fill-rule="nonzero"/></g></g></g></g><g clip-path="url(#87814ce31f)"><g clip-path="url(#2bcd37d133)"><g clip-path="url(#4abcdcbd09)"><g clip-path="url(#08624bab0f)"><path fill="#ffffff" d="M 589.175781 235.085938 L 588.65625 213.375 L 602.820312 225.96875 L 628.945312 219.449219 L 615.972656 234.976562 L 629.597656 260.90625 L 608.683594 249.023438 L 594.308594 269.382812 L 592.058594 248.546875 L 570.359375 240.617188 Z M 589.175781 235.085938 " fill-opacity="1" fill-rule="nonzero"/></g></g></g></g><g clip-path="url(#66e78621c0)"><g clip-path="url(#64f517e709)"><g clip-path="url(#6b905cfeac)"><g clip-path="url(#f6c2fac1cd)"><path fill="#ffffff" d="M 282.355469 448.378906 L 271.796875 429.390625 L 290.21875 433.949219 L 310.28125 416 L 306.015625 435.8125 L 330.097656 452.4375 L 306.097656 451.605469 L 302.796875 476.335938 L 291.148438 458.910156 L 268.203125 462.007812 Z M 282.355469 448.378906 " fill-opacity="1" fill-rule="nonzero"/></g></g></g></g><g clip-path="url(#9f440d83a4)"><g clip-path="url(#21bdd9211b)"><g clip-path="url(#7a13c4ec44)"><g clip-path="url(#cea60dc3a7)"><path fill="#000000" d="M 247.21875 638.425781 L 291.382812 588.890625 L 339.398438 538.449219 L 286.632812 581.777344 Z M 247.21875 638.425781 " fill-opacity="1" fill-rule="nonzero"/></g></g></g></g><g clip-path="url(#a5d4a227bf)"><g clip-path="url(#a6080d8005)"><g clip-path="url(#7074ebd9e4)"><g clip-path="url(#7ee8d35b01)"><path fill="#000000" d="M 210.660156 624.484375 L 189.089844 698.128906 L 211.167969 751.964844 L 219.917969 744.261719 L 201.457031 694.589844 L 225.800781 633.550781 " fill-opacity="1" fill-rule="nonzero"/></g></g></g></g><g clip-path="url(#5acba3e3df)"><g clip-path="url(#8fb647c16c)"><g clip-path="url(#ea99ac81e2)"><g clip-path="url(#e538d1b260)"><path fill="#000000" d="M 212.609375 629.761719 L 175.152344 662.023438 L 166.023438 707.980469 L 179.253906 727.78125 L 185.699219 720.785156 L 177.976562 698.136719 L 188.277344 667.246094 L 218.433594 638.476562 L 242.164062 728.191406 L 236.832031 769.570312 L 227.625 755.796875 L 223.488281 695.53125 L 210.890625 638.417969 " fill-opacity="1" fill-rule="nonzero"/></g></g></g></g><g clip-path="url(#15c3d42fde)"><g clip-path="url(#41f3fad8ab)"><g clip-path="url(#803ff94ca8)"><g clip-path="url(#a37f8785b8)"><path fill="#000000" d="M 775.269531 233.910156 L 812.410156 219.46875 L 848.125 241.023438 L 857.992188 269.652344 L 843.460938 270.089844 L 830.6875 242.382812 L 807.730469 234.648438 L 757.746094 248.585938 " fill-opacity="1" fill-rule="nonzero"/></g></g></g></g><g clip-path="url(#fd702a4b21)"><g clip-path="url(#ee3baf44a3)"><g clip-path="url(#4b672f3a38)"><g clip-path="url(#a5636e21f5)"><path fill="#000000" d="M 779.003906 246.707031 L 820.578125 256.648438 L 849.90625 296.371094 L 878.132812 313.65625 L 871.09375 321.144531 L 833.238281 296.386719 L 814.824219 268.558594 C 814.824219 268.558594 767.789062 247.808594 763.625 250.867188 " fill-opacity="1" fill-rule="nonzero"/></g></g></g></g></svg>